<?xml version="1.0" encoding="utf-8"?>
<svg version="1.1" xmlns="http://www.w3.org/2000/svg" viewBox="-0.735577 -0.115 2.13115 1.52"><defs><marker id="secArrow-blue" markerWidth="3" markerHeight="4" refX="3" refY="2" orient="auto"><path d="M3,2 L0,4 L0,0 L3,2" fill="blue" style="stroke:none;fill-opacity:0.5"/></marker><marker id="secArrow-seagreen" markerWidth="3" markerHeight="4" refX="3" refY="2" orient="auto"><path d="M3,2 L0,4 L0,0 L3,2" fill="seagreen" style="stroke:none;fill-opacity:0.5"/></marker><marker id="secArrow-orange" markerWidth="3" markerHeight="4" refX="3" refY="2" orient="auto"><path d="M3,2 L0,4 L0,0 L3,2" fill="orange" style="stroke:none;fill-opacity:0.5"/></marker></defs><g><g><g><polygon points="0,-0 0.0825,1.01033e-17 0.165,2.02067e-17 0.2475,3.031e-17 0.33,4.04133e-17 0.4125,5.05167e-17 0.495,6.062e-17 0.5775,7.07234e-17 0.66,8.08267e-17 0.66,0.094 -1.15117e-17,0.094 " style="fill:#eee;stroke:darkgrey;stroke-width:0.005"/><polyline points="0,-0 0.0825,1.01033e-17 0.165,2.02067e-17 0.2475,3.031e-17 0.33,4.04133e-17 0.4125,5.05167e-17 0.495,6.062e-17 0.5775,7.07234e-17 0.66,8.08267e-17 " style="fill:#eee;stroke:black;stroke-width:0.010"/><polygon points="0.02,0.0188 0.02,0.0752 0.04,0.047 " style="fill:#ccc;stroke-width:0"/><text x="0.33000000000000002" y="0.061100000000000043" text-anchor="middle" font-size="0.040000000000000001" style="fill:darkgrey">gSeg_A_1 (NN 130)</text></g><g><polygon points="0.66,8.08267e-17 0.71633,8.77252e-17 0.772661,3.66468e-08 0.828991,4.17485e-05 0.885319,0.000445667 0.941624,0.00204461 0.997778,0.00636481 1.0533,0.0156938 1.10694,0.0326832 1.07097,0.119528 0.66,0.094 " style="fill:#eee;stroke:darkgrey;stroke-width:0.005"/><polyline points="0.66,8.08267e-17 0.71633,8.77252e-17 0.772661,3.66468e-08 0.828991,4.17485e-05 0.885319,0.000445667 0.941624,0.00204461 0.997778,0.00636481 1.0533,0.0156938 1.10694,0.0326832 " style="fill:#eee;stroke:black;stroke-width:0.010"/><polygon points="0.68,0.0188 0.68,0.0752 0.7,0.047 " style="fill:#ccc;stroke-width:0"/><text x="0.8846430891240249" y="0.061540803291759143" text-anchor="middle" font-size="0.040000000000000001" style="fill:darkgrey">gSeg_A_2 (NN 131)</text></g><g><polygon points="1.10694,0.0326832 1.13405,0.0455047 1.15977,0.0609216 1.18386,0.0787854 1.20608,0.0989241 1.22621,0.121144 1.24408,0.14523 1.2595,0.170952 1.27232,0.198061 1.16748,0.241486 1.06351,0.137523 " style="fill:#eee;stroke:darkgrey;stroke-width:0.005"/><polyline points="1.10694,0.0326832 1.13405,0.0455047 1.15977,0.0609216 1.18386,0.0787854 1.20608,0.0989241 1.22621,0.121144 1.24408,0.14523 1.2595,0.170952 1.27232,0.198061 " style="fill:#eee;stroke:black;stroke-width:0.010"/><polygon points="1.11673,0.0613047 1.09068,0.124208 1.12218,0.10041 " style="fill:#ccc;stroke-width:0"/><text x="1.1659556532740922" y="0.15606593257590801" text-anchor="middle" font-size="0.040000000000000001" style="fill:darkgrey">gSeg_A_3 (NN 132)</text></g><g><polygon points="1.27232,0.198061 1.28242,0.226296 1.28971,0.255385 1.29411,0.285048 1.29558,0.315 1.29411,0.344952 1.28971,0.374615 1.28242,0.403704 1.27232,0.431939 1.16748,0.388514 1.16748,0.241486 " style="fill:#eee;stroke:darkgrey;stroke-width:0.005"/><polyline points="1.27232,0.198061 1.28242,0.226296 1.28971,0.255385 1.29411,0.285048 1.29558,0.315 1.29411,0.344952 1.28971,0.374615 1.28242,0.403704 1.27232,0.431939 " style="fill:#eee;stroke:black;stroke-width:0.010"/><polygon points="1.259,0.225223 1.1961,0.251279 1.2352,0.256729 " style="fill:#ccc;stroke-width:0"/><text x="1.2388388712364393" y="0.33202158585000019" text-anchor="middle" font-size="0.040000000000000001" style="fill:darkgrey">gSeg_A_4 (NN 133)</text></g><g><polygon points="1.27232,0.431939 1.2595,0.459048 1.24408,0.48477 1.22621,0.508856 1.20608,0.531076 1.18386,0.551215 1.15977,0.569078 1.13405,0.584495 1.10694,0.597317 1.06351,0.492477 1.16748,0.388514 " style="fill:#eee;stroke:darkgrey;stroke-width:0.005"/><polyline points="1.27232,0.431939 1.2595,0.459048 1.24408,0.48477 1.22621,0.508856 1.20608,0.531076 1.18386,0.551215 1.15977,0.569078 1.13405,0.584495 1.10694,0.597317 " style="fill:#eee;stroke:black;stroke-width:0.010"/><polygon points="1.2437,0.441732 1.18079,0.415676 1.20459,0.447182 " style="fill:#ccc;stroke-width:0"/><text x="1.1659556532740925" y="0.50797723912409232" text-anchor="middle" font-size="0.040000000000000001" style="fill:darkgrey">gSeg_A_5 (NN 134)</text></g><g><polygon points="1.10694,0.597317 1.0533,0.614306 0.997778,0.623635 0.941624,0.627955 0.885319,0.629554 0.828991,0.629958 0.772661,0.63 0.71633,0.63 0.66,0.63 0.66,0.536 1.07097,0.510472 " style="fill:#eee;stroke:darkgrey;stroke-width:0.005"/><polyline points="1.10694,0.597317 1.0533,0.614306 0.997778,0.623635 0.941624,0.627955 0.885319,0.629554 0.828991,0.629958 0.772661,0.63 0.71633,0.63 0.66,0.63 " style="fill:#eee;stroke:black;stroke-width:0.010"/><polygon points="1.08127,0.587602 1.05968,0.535495 1.052,0.569202 " style="fill:#ccc;stroke-width:0"/><text x="0.88464308912402501" y="0.59665919670824119" text-anchor="middle" font-size="0.040000000000000001" style="fill:darkgrey">gSeg_A_6 (NN 135)</text></g><g><polygon points="0.66,0.63 0.5775,0.63 0.495,0.63 0.4125,0.63 0.33,0.63 0.2475,0.63 0.165,0.63 0.0825,0.63 -1.11022e-16,0.63 -1.41255e-16,0.536 0.66,0.536 " style="fill:#eee;stroke:darkgrey;stroke-width:0.005"/><polyline points="0.66,0.63 0.5775,0.63 0.495,0.63 0.4125,0.63 0.33,0.63 0.2475,0.63 0.165,0.63 0.0825,0.63 -1.11022e-16,0.63 " style="fill:#eee;stroke:black;stroke-width:0.010"/><polygon points="0.64,0.6112 0.64,0.5548 0.62,0.583 " style="fill:#ccc;stroke-width:0"/><text x="0.32999999999999996" y="0.59710000000000041" text-anchor="middle" font-size="0.040000000000000001" style="fill:darkgrey">gSeg_A_7 (NN 136)</text></g><g><polygon points="-7.71527e-17,0.63 -0.0563303,0.63 -0.112661,0.63 -0.168991,0.629958 -0.225319,0.629554 -0.281624,0.627955 -0.337778,0.623635 -0.393297,0.614306 -0.446939,0.597317 -0.410967,0.510472 -1.07385e-16,0.536 " style="fill:#eee;stroke:darkgrey;stroke-width:0.005"/><polyline points="-7.71527e-17,0.63 -0.0563303,0.63 -0.112661,0.63 -0.168991,0.629958 -0.225319,0.629554 -0.281624,0.627955 -0.337778,0.623635 -0.393297,0.614306 -0.446939,0.597317 " style="fill:#eee;stroke:black;stroke-width:0.010"/><polygon points="-0.02,0.6112 -0.02,0.5548 -0.04,0.583 " style="fill:#ccc;stroke-width:0"/><text x="-0.22464308912402497" y="0.59665919670824152" text-anchor="middle" font-size="0.040000000000000001" style="fill:darkgrey">gSeg_A_8 (NN 137)</text></g><g><polygon points="-0.446939,0.597317 -0.474048,0.584495 -0.49977,0.569078 -0.523856,0.551215 -0.546076,0.531076 -0.566215,0.508856 -0.584078,0.48477 -0.599495,0.459048 -0.612317,0.431939 -0.507477,0.388514 -0.403514,0.492477 " style="fill:#eee;stroke:darkgrey;stroke-width:0.005"/><polyline points="-0.446939,0.597317 -0.474048,0.584495 -0.49977,0.569078 -0.523856,0.551215 -0.546076,0.531076 -0.566215,0.508856 -0.584078,0.48477 -0.599495,0.459048 -0.612317,0.431939 " style="fill:#eee;stroke:black;stroke-width:0.010"/><polygon points="-0.456732,0.568695 -0.430676,0.505792 -0.462182,0.52959 " style="fill:#ccc;stroke-width:0"/><text x="-0.50595565327409253" y="0.50797723912409287" text-anchor="middle" font-size="0.040000000000000001" style="fill:darkgrey">gSeg_A_9 (NN 138)</text></g><g><polygon points="-0.612317,0.431939 -0.622419,0.403704 -0.629706,0.374615 -0.634106,0.344952 -0.635577,0.315 -0.634106,0.285048 -0.629706,0.255385 -0.622419,0.226296 -0.612317,0.198061 -0.507477,0.241486 -0.507477,0.388514 " style="fill:#eee;stroke:darkgrey;stroke-width:0.005"/><polyline points="-0.612317,0.431939 -0.622419,0.403704 -0.629706,0.374615 -0.634106,0.344952 -0.635577,0.315 -0.634106,0.285048 -0.629706,0.255385 -0.622419,0.226296 -0.612317,0.198061 " style="fill:#eee;stroke:black;stroke-width:0.010"/><polygon points="-0.599003,0.404777 -0.536099,0.378721 -0.575204,0.373271 " style="fill:#ccc;stroke-width:0"/><text x="-0.57883887123643929" y="0.33202158585000058" text-anchor="middle" font-size="0.040000000000000001" style="fill:darkgrey">gSeg_A_10 (NN 139)</text></g><g><polygon points="-0.612317,0.198061 -0.599495,0.170952 -0.584078,0.14523 -0.566215,0.121144 -0.546076,0.0989241 -0.523856,0.0787854 -0.49977,0.0609216 -0.474048,0.0455047 -0.446939,0.0326832 -0.403514,0.137523 -0.507477,0.241486 " style="fill:#eee;stroke:darkgrey;stroke-width:0.005"/><polyline points="-0.612317,0.198061 -0.599495,0.170952 -0.584078,0.14523 -0.566215,0.121144 -0.546076,0.0989241 -0.523856,0.0787854 -0.49977,0.0609216 -0.474048,0.0455047 -0.446939,0.0326832 " style="fill:#eee;stroke:black;stroke-width:0.010"/><polygon points="-0.583695,0.188268 -0.520792,0.214324 -0.54459,0.182818 " style="fill:#ccc;stroke-width:0"/><text x="-0.50595565327409264" y="0.15606593257590831" text-anchor="middle" font-size="0.040000000000000001" style="fill:darkgrey">gSeg_A_11 (NN 140)</text></g><g><polygon points="-0.446939,0.0326832 -0.393297,0.0156938 -0.337778,0.00636481 -0.281624,0.00204461 -0.225319,0.000445667 -0.168991,4.17485e-05 -0.112661,3.66468e-08 -0.0563303,9.71445e-17 -4.44089e-16,5.55112e-17 -3.65818e-16,0.094 -0.410967,0.119528 " style="fill:#eee;stroke:darkgrey;stroke-width:0.005"/><polyline points="-0.446939,0.0326832 -0.393297,0.0156938 -0.337778,0.00636481 -0.281624,0.00204461 -0.225319,0.000445667 -0.168991,4.17485e-05 -0.112661,3.66468e-08 -0.0563303,9.71445e-17 -4.44089e-16,5.55112e-17 " style="fill:#eee;stroke:black;stroke-width:0.010"/><polygon points="-0.421267,0.0423985 -0.399684,0.0945053 -0.391998,0.0607982 " style="fill:#ccc;stroke-width:0"/><text x="-0.22464308912402528" y="0.061540803291759302" text-anchor="middle" font-size="0.040000000000000001" style="fill:darkgrey">gSeg_A_12 (NN 141)</text></g><g><polygon points="0.66,0.66 0.71633,0.66 0.772661,0.66 0.828991,0.660042 0.885319,0.660446 0.941624,0.662045 0.997778,0.666365 1.0533,0.675694 1.10694,0.692683 1.07097,0.779528 0.66,0.754 " style="fill:#eee;stroke:darkgrey;stroke-width:0.005"/><polyline points="0.66,0.66 0.71633,0.66 0.772661,0.66 0.828991,0.660042 0.885319,0.660446 0.941624,0.662045 0.997778,0.666365 1.0533,0.675694 1.10694,0.692683 " style="fill:#eee;stroke:black;stroke-width:0.010"/><polygon points="0.68,0.6788 0.68,0.7352 0.7,0.707 " style="fill:#ccc;stroke-width:0"/><text x="0.8846430891240249" y="0.7215408032917594" text-anchor="middle" font-size="0.040000000000000001" style="fill:darkgrey">gSeg_B_1 (NN 142)</text></g><g><polygon points="1.10694,0.692683 1.13405,0.705505 1.15977,0.720922 1.18386,0.738785 1.20608,0.758924 1.22621,0.781144 1.24408,0.80523 1.2595,0.830952 1.27232,0.858061 1.16748,0.901486 1.06351,0.797523 " style="fill:#eee;stroke:darkgrey;stroke-width:0.005"/><polyline points="1.10694,0.692683 1.13405,0.705505 1.15977,0.720922 1.18386,0.738785 1.20608,0.758924 1.22621,0.781144 1.24408,0.80523 1.2595,0.830952 1.27232,0.858061 " style="fill:#eee;stroke:black;stroke-width:0.010"/><polygon points="1.11673,0.721305 1.09068,0.784208 1.12218,0.76041 " style="fill:#ccc;stroke-width:0"/><text x="1.1659556532740927" y="0.81606593257590809" text-anchor="middle" font-size="0.040000000000000001" style="fill:darkgrey">gSeg_B_2 (NN 143)</text></g><g><polygon points="1.27232,0.858061 1.28242,0.886296 1.28971,0.915385 1.29411,0.945048 1.29558,0.975 1.29411,1.00495 1.28971,1.03462 1.28242,1.0637 1.27232,1.09194 1.16748,1.04851 1.16748,0.901486 " style="fill:#eee;stroke:darkgrey;stroke-width:0.005"/><polyline points="1.27232,0.858061 1.28242,0.886296 1.28971,0.915385 1.29411,0.945048 1.29558,0.975 1.29411,1.00495 1.28971,1.03462 1.28242,1.0637 1.27232,1.09194 " style="fill:#eee;stroke:black;stroke-width:0.010"/><polygon points="1.259,0.885223 1.1961,0.911279 1.2352,0.916729 " style="fill:#ccc;stroke-width:0"/><text x="1.2388388712364393" y="0.99202158585000033" text-anchor="middle" font-size="0.040000000000000001" style="fill:darkgrey">gSeg_B_3 (NN 144)</text></g><g><polygon points="1.27232,1.09194 1.2595,1.11905 1.24408,1.14477 1.22621,1.16886 1.20608,1.19108 1.18386,1.21121 1.15977,1.22908 1.13405,1.2445 1.10694,1.25732 1.06351,1.15248 1.16748,1.04851 " style="fill:#eee;stroke:darkgrey;stroke-width:0.005"/><polyline points="1.27232,1.09194 1.2595,1.11905 1.24408,1.14477 1.22621,1.16886 1.20608,1.19108 1.18386,1.21121 1.15977,1.22908 1.13405,1.2445 1.10694,1.25732 " style="fill:#eee;stroke:black;stroke-width:0.010"/><polygon points="1.2437,1.10173 1.18079,1.07568 1.20459,1.10718 " style="fill:#ccc;stroke-width:0"/><text x="1.1659556532740925" y="1.1679772391240926" text-anchor="middle" font-size="0.040000000000000001" style="fill:darkgrey">gSeg_B_4 (NN 145)</text></g><g><polygon points="1.10694,1.25732 1.0533,1.27431 0.997778,1.28364 0.941624,1.28796 0.885319,1.28955 0.828991,1.28996 0.772661,1.29 0.71633,1.29 0.66,1.29 0.66,1.196 1.07097,1.17047 " style="fill:#eee;stroke:darkgrey;stroke-width:0.005"/><polyline points="1.10694,1.25732 1.0533,1.27431 0.997778,1.28364 0.941624,1.28796 0.885319,1.28955 0.828991,1.28996 0.772661,1.29 0.71633,1.29 0.66,1.29 " style="fill:#eee;stroke:black;stroke-width:0.010"/><polygon points="1.08127,1.2476 1.05968,1.19549 1.052,1.2292 " style="fill:#ccc;stroke-width:0"/><text x="0.88464308912402523" y="1.2566591967082417" text-anchor="middle" font-size="0.040000000000000001" style="fill:darkgrey">gSeg_B_5 (NN 146)</text></g><g><polygon points="0.66,1.29 0.5775,1.29 0.495,1.29 0.4125,1.29 0.33,1.29 0.2475,1.29 0.165,1.29 0.0825,1.29 -1.11022e-16,1.29 -1.82999e-16,1.196 0.66,1.196 " style="fill:#eee;stroke:darkgrey;stroke-width:0.005"/><polyline points="0.66,1.29 0.5775,1.29 0.495,1.29 0.4125,1.29 0.33,1.29 0.2475,1.29 0.165,1.29 0.0825,1.29 -1.11022e-16,1.29 " style="fill:#eee;stroke:black;stroke-width:0.010"/><polygon points="0.64,1.2712 0.64,1.2148 0.62,1.243 " style="fill:#ccc;stroke-width:0"/><text x="0.33000000000000002" y="1.257100000000001" text-anchor="middle" font-size="0.040000000000000001" style="fill:darkgrey">gSeg_B_6 (NN 147)</text></g><g><polygon points="0,1.29 -0.0563303,1.29 -0.112661,1.29 -0.168991,1.28996 -0.225319,1.28955 -0.281624,1.28796 -0.337778,1.28364 -0.393297,1.27431 -0.446939,1.25732 -0.410967,1.17047 -7.19771e-17,1.196 " style="fill:#eee;stroke:darkgrey;stroke-width:0.005"/><polyline points="0,1.29 -0.0563303,1.29 -0.112661,1.29 -0.168991,1.28996 -0.225319,1.28955 -0.281624,1.28796 -0.337778,1.28364 -0.393297,1.27431 -0.446939,1.25732 " style="fill:#eee;stroke:black;stroke-width:0.010"/><polygon points="-0.02,1.2712 -0.02,1.2148 -0.04,1.243 " style="fill:#ccc;stroke-width:0"/><text x="-0.22464308912402497" y="1.2566591967082426" text-anchor="middle" font-size="0.040000000000000001" style="fill:darkgrey">gSeg_B_7 (NN 148)</text></g><g><polygon points="-0.446939,1.25732 -0.474048,1.2445 -0.49977,1.22908 -0.523856,1.21121 -0.546076,1.19108 -0.566215,1.16886 -0.584078,1.14477 -0.599495,1.11905 -0.612317,1.09194 -0.507477,1.04851 -0.403514,1.15248 " style="fill:#eee;stroke:darkgrey;stroke-width:0.005"/><polyline points="-0.446939,1.25732 -0.474048,1.2445 -0.49977,1.22908 -0.523856,1.21121 -0.546076,1.19108 -0.566215,1.16886 -0.584078,1.14477 -0.599495,1.11905 -0.612317,1.09194 " style="fill:#eee;stroke:black;stroke-width:0.010"/><polygon points="-0.456732,1.2287 -0.430676,1.16579 -0.462182,1.18959 " style="fill:#ccc;stroke-width:0"/><text x="-0.50595565327409264" y="1.1679772391240937" text-anchor="middle" font-size="0.040000000000000001" style="fill:darkgrey">gSeg_B_8 (NN 149)</text></g><g><polygon points="-0.612317,1.09194 -0.622419,1.0637 -0.629706,1.03462 -0.634106,1.00495 -0.635577,0.975 -0.634106,0.945048 -0.629706,0.915385 -0.622419,0.886296 -0.612317,0.858061 -0.507477,0.901486 -0.507477,1.04851 " style="fill:#eee;stroke:darkgrey;stroke-width:0.005"/><polyline points="-0.612317,1.09194 -0.622419,1.0637 -0.629706,1.03462 -0.634106,1.00495 -0.635577,0.975 -0.634106,0.945048 -0.629706,0.915385 -0.622419,0.886296 -0.612317,0.858061 " style="fill:#eee;stroke:black;stroke-width:0.010"/><polygon points="-0.599003,1.06478 -0.536099,1.03872 -0.575204,1.03327 " style="fill:#ccc;stroke-width:0"/><text x="-0.57883887123643951" y="0.99202158585000144" text-anchor="middle" font-size="0.040000000000000001" style="fill:darkgrey">gSeg_B_9 (NN 150)</text></g><g><polygon points="-0.612317,0.858061 -0.599495,0.830952 -0.584078,0.80523 -0.566215,0.781144 -0.546076,0.758924 -0.523856,0.738785 -0.49977,0.720922 -0.474048,0.705505 -0.446939,0.692683 -0.403514,0.797523 -0.507477,0.901486 " style="fill:#eee;stroke:darkgrey;stroke-width:0.005"/><polyline points="-0.612317,0.858061 -0.599495,0.830952 -0.584078,0.80523 -0.566215,0.781144 -0.546076,0.758924 -0.523856,0.738785 -0.49977,0.720922 -0.474048,0.705505 -0.446939,0.692683 " style="fill:#eee;stroke:black;stroke-width:0.010"/><polygon points="-0.583695,0.848268 -0.520792,0.874324 -0.54459,0.842818 " style="fill:#ccc;stroke-width:0"/><text x="-0.50595565327409298" y="0.8160659325759092" text-anchor="middle" font-size="0.040000000000000001" style="fill:darkgrey">gSeg_B_10 (NN 151)</text></g><g><polygon points="-0.446939,0.692683 -0.393297,0.675694 -0.337778,0.666365 -0.281624,0.662045 -0.225319,0.660446 -0.168991,0.660042 -0.112661,0.66 -0.0563303,0.66 -6.10623e-16,0.66 -4.90608e-16,0.754 -0.410967,0.779528 " style="fill:#eee;stroke:darkgrey;stroke-width:0.005"/><polyline points="-0.446939,0.692683 -0.393297,0.675694 -0.337778,0.666365 -0.281624,0.662045 -0.225319,0.660446 -0.168991,0.660042 -0.112661,0.66 -0.0563303,0.66 -6.10623e-16,0.66 " style="fill:#eee;stroke:black;stroke-width:0.010"/><polygon points="-0.421267,0.702398 -0.399684,0.754505 -0.391998,0.720798 " style="fill:#ccc;stroke-width:0"/><text x="-0.22464308912402553" y="0.72154080329175996" text-anchor="middle" font-size="0.040000000000000001" style="fill:darkgrey">gSeg_B_11 (NN 152)</text></g></g><g><g><polyline points="1.83697e-18,-0.015 0.0253846,-0.015 0.0507692,-0.015 0.0761538,-0.015 0.101538,-0.015 0.126923,-0.015 0.152308,-0.015 0.177692,-0.015 0.203077,-0.015 0.228462,-0.015 0.253846,-0.015 0.279231,-0.015 0.304615,-0.015 0.33,-0.015 0.355385,-0.015 0.380769,-0.015 0.406154,-0.015 0.431538,-0.015 0.456923,-0.015 0.482308,-0.015 0.507692,-0.015 0.533077,-0.015 0.558462,-0.015 0.583846,-0.015 0.609231,-0.015 0.634615,-0.015 0.66,-0.015 " stroke-width="0.0050000000000000001" style="stroke:pink;fill:none"/><rect x="-0.0050000000000002274" y="-0.019999999999999976" width="0.01" height="0.01" style="fill:red;stroke-width:0"/><rect x="0.65500000000000003" y="-0.019999999999999917" width="0.01" height="0.01" style="fill:red;stroke-width:0"/></g><g><polyline points="0.66,-0.015 0.68625,-0.015 0.7125,-0.015 0.73875,-0.015 0.765,-0.015 " stroke-width="0.0050000000000000001" style="stroke:pink;fill:none"/><rect x="0.65500000000000003" y="-0.019999999999999917" width="0.01" height="0.01" style="fill:red;stroke-width:0"/><rect x="0.76000000000000001" y="-0.019999999999999907" width="0.01" height="0.01" style="fill:red;stroke-width:0"/></g><g><polyline points="0.765,-0.015 0.791592,-0.014998 0.818197,-0.0149785 0.844829,-0.0149062 0.8715,-0.0147224 0.898227,-0.0143393 0.925025,-0.0136353 0.951905,-0.0124499 0.978868,-0.0105791 1.0059,-0.0077732 1.03293,-0.00374117 1.05988,0.00183544 1.08654,0.00927084 1.11268,0.018825 " stroke-width="0.0050000000000000001" style="stroke:pink;fill:none"/><rect x="0.76000000000000001" y="-0.019999999999999907" width="0.01" height="0.01" style="fill:red;stroke-width:0"/><rect x="1.1076796944940084" y="0.013825017724777504" width="0.01" height="0.01" style="fill:red;stroke-width:0"/></g><g><polyline points="1.11268,0.018825 1.13803,0.0306443 1.16225,0.0446277 1.18516,0.0606688 1.20658,0.0786455 1.22635,0.098421 1.24433,0.119845 1.26037,0.142754 1.27436,0.166974 1.28617,0.19232 " stroke-width="0.0050000000000000001" style="stroke:pink;fill:none"/><rect x="1.1076796944940084" y="0.013825017724777504" width="0.01" height="0.01" style="fill:red;stroke-width:0"/><rect x="1.281174982275223" y="0.18732030550599188" width="0.01" height="0.01" style="fill:red;stroke-width:0"/></g><g><polyline points="1.28617,0.19232 1.29574,0.2186 1.30298,0.245614 1.30783,0.273156 1.31027,0.301017 1.31027,0.328983 1.30783,0.356844 1.30298,0.384386 1.29574,0.4114 1.28617,0.43768 " stroke-width="0.0050000000000000001" style="stroke:pink;fill:none"/><rect x="1.281174982275223" y="0.18732030550599188" width="0.01" height="0.01" style="fill:red;stroke-width:0"/><rect x="1.281174982275223" y="0.43267969449400839" width="0.01" height="0.01" style="fill:red;stroke-width:0"/></g><g><polyline points="1.28617,0.43768 1.27436,0.463026 1.26037,0.487246 1.24433,0.510155 1.22635,0.531579 1.20658,0.551355 1.18516,0.569331 1.16225,0.585372 1.13803,0.599356 1.11268,0.611175 " stroke-width="0.0050000000000000001" style="stroke:pink;fill:none"/><rect x="1.281174982275223" y="0.43267969449400839" width="0.01" height="0.01" style="fill:red;stroke-width:0"/><rect x="1.1076796944940086" y="0.60617498227522282" width="0.01" height="0.01" style="fill:red;stroke-width:0"/></g><g><polyline points="1.11268,0.611175 1.08654,0.620729 1.05988,0.628165 1.03293,0.633741 1.0059,0.637773 0.978868,0.640579 0.951905,0.64245 0.925025,0.643635 0.898227,0.644339 0.8715,0.644722 0.844829,0.644906 0.818197,0.644978 0.791592,0.644998 0.765,0.645 " stroke-width="0.0050000000000000001" style="stroke:pink;fill:none"/><rect x="1.1076796944940086" y="0.60617498227522282" width="0.01" height="0.01" style="fill:red;stroke-width:0"/><rect x="0.76000000000000012" y="0.64000000000000035" width="0.01" height="0.01" style="fill:red;stroke-width:0"/></g><g><polyline points="0.765,0.645 0.73875,0.645 0.7125,0.645 0.68625,0.645 0.66,0.645 " stroke-width="0.014999999999999999" style="stroke:pink;fill:none"/><rect x="0.76000000000000012" y="0.64000000000000035" width="0.01" height="0.01" style="fill:red;stroke-width:0"/><rect x="0.65500000000000014" y="0.64000000000000035" width="0.01" height="0.01" style="fill:red;stroke-width:0"/></g><g><polyline points="0.66,0.645 0.634615,0.645 0.609231,0.645 0.583846,0.645 0.558462,0.645 0.533077,0.645 0.507692,0.645 0.482308,0.645 0.456923,0.645 0.431538,0.645 0.406154,0.645 0.380769,0.645 0.355385,0.645 0.33,0.645 0.304615,0.645 0.279231,0.645 0.253846,0.645 0.228462,0.645 0.203077,0.645 0.177692,0.645 0.152308,0.645 0.126923,0.645 0.101538,0.645 0.0761538,0.645 0.0507692,0.645 0.0253846,0.645 -1.06198e-16,0.645 " stroke-width="0.0050000000000000001" style="stroke:pink;fill:none"/><rect x="0.65500000000000014" y="0.64000000000000035" width="0.01" height="0.01" style="fill:red;stroke-width:0"/><rect x="-0.0050000000000002291" y="0.64000000000000057" width="0.01" height="0.01" style="fill:red;stroke-width:0"/></g><g><polyline points="-3.51051e-16,0.645 -0.02625,0.645 -0.0525,0.645 -0.07875,0.645 -0.105,0.645 " stroke-width="0.014999999999999999" style="stroke:pink;fill:none"/><rect x="-0.0050000000000002291" y="0.64000000000000057" width="0.01" height="0.01" style="fill:red;stroke-width:0"/><rect x="-0.11000000000000042" y="0.64000000000000079" width="0.01" height="0.01" style="fill:red;stroke-width:0"/></g><g><polyline points="-0.105,0.645 -0.131592,0.644998 -0.158197,0.644978 -0.184829,0.644906 -0.2115,0.644722 -0.238227,0.644339 -0.265025,0.643635 -0.291905,0.64245 -0.318868,0.640579 -0.345896,0.637773 -0.372934,0.633741 -0.399876,0.628165 -0.426543,0.620729 -0.45268,0.611175 " stroke-width="0.0050000000000000001" style="stroke:pink;fill:none"/><rect x="-0.11000000000000042" y="0.64000000000000079" width="0.01" height="0.01" style="fill:red;stroke-width:0"/><rect x="-0.45767969449400847" y="0.60617498227522337" width="0.01" height="0.01" style="fill:red;stroke-width:0"/></g><g><polyline points="-0.45268,0.611175 -0.478026,0.599356 -0.502246,0.585372 -0.525155,0.569331 -0.546579,0.551355 -0.566355,0.531579 -0.584331,0.510155 -0.600372,0.487246 -0.614356,0.463026 -0.626175,0.43768 " stroke-width="0.0050000000000000001" style="stroke:pink;fill:none"/><rect x="-0.45767969449400847" y="0.60617498227522337" width="0.01" height="0.01" style="fill:red;stroke-width:0"/><rect x="-0.63117498227522295" y="0.432679694494009" width="0.01" height="0.01" style="fill:red;stroke-width:0"/></g><g><polyline points="-0.626175,0.43768 -0.63574,0.4114 -0.642979,0.384386 -0.647835,0.356844 -0.650272,0.328983 -0.650272,0.301017 -0.647835,0.273156 -0.642979,0.245614 -0.63574,0.2186 -0.626175,0.19232 " stroke-width="0.0050000000000000001" style="stroke:pink;fill:none"/><rect x="-0.63117498227522295" y="0.432679694494009" width="0.01" height="0.01" style="fill:red;stroke-width:0"/><rect x="-0.63117498227522317" y="0.18732030550599238" width="0.01" height="0.01" style="fill:red;stroke-width:0"/></g><g><polyline points="-0.626175,0.19232 -0.614356,0.166974 -0.600372,0.142754 -0.584331,0.119845 -0.566355,0.098421 -0.546579,0.0786455 -0.525155,0.0606688 -0.502246,0.0446277 -0.478026,0.0306443 -0.45268,0.018825 " stroke-width="0.0050000000000000001" style="stroke:pink;fill:none"/><rect x="-0.63117498227522317" y="0.18732030550599238" width="0.01" height="0.01" style="fill:red;stroke-width:0"/><rect x="-0.4576796944940088" y="0.013825017724777806" width="0.01" height="0.01" style="fill:red;stroke-width:0"/></g><g><polyline points="-0.45268,0.018825 -0.426543,0.00927084 -0.399876,0.00183544 -0.372934,-0.00374117 -0.345896,-0.0077732 -0.318868,-0.0105791 -0.291905,-0.0124499 -0.265025,-0.0136353 -0.238227,-0.0143393 -0.2115,-0.0147224 -0.184829,-0.0149062 -0.158197,-0.0149785 -0.131592,-0.014998 -0.105,-0.015 " stroke-width="0.0050000000000000001" style="stroke:pink;fill:none"/><rect x="-0.4576796944940088" y="0.013825017724777806" width="0.01" height="0.01" style="fill:red;stroke-width:0"/><rect x="-0.1100000000000005" y="-0.019999999999999855" width="0.01" height="0.01" style="fill:red;stroke-width:0"/></g><g><polyline points="-4.56579e-16,-0.015 -0.02625,-0.015 -0.0525,-0.015 -0.07875,-0.015 -0.105,-0.015 " stroke-width="0.0050000000000000001" style="stroke:pink;fill:none"/><rect x="-0.0050000000000002274" y="-0.019999999999999976" width="0.01" height="0.01" style="fill:red;stroke-width:0"/><rect x="-0.1100000000000005" y="-0.019999999999999855" width="0.01" height="0.01" style="fill:red;stroke-width:0"/></g><g><polyline points="0.765,0.645 0.791592,0.645002 0.818197,0.645022 0.844829,0.645094 0.8715,0.645278 0.898227,0.645661 0.925025,0.646365 0.951905,0.64755 0.978868,0.649421 1.0059,0.652227 1.03293,0.656259 1.05988,0.661835 1.08654,0.669271 1.11268,0.678825 " stroke-width="0.0050000000000000001" style="stroke:pink;fill:none"/><rect x="0.76000000000000012" y="0.64000000000000035" width="0.01" height="0.01" style="fill:red;stroke-width:0"/><rect x="1.1076796944940086" y="0.67382501772477754" width="0.01" height="0.01" style="fill:red;stroke-width:0"/></g><g><polyline points="1.11268,0.678825 1.13803,0.690644 1.16225,0.704628 1.18516,0.720669 1.20658,0.738645 1.22635,0.758421 1.24433,0.779845 1.26037,0.802754 1.27436,0.826974 1.28617,0.85232 " stroke-width="0.0050000000000000001" style="stroke:pink;fill:none"/><rect x="1.1076796944940086" y="0.67382501772477754" width="0.01" height="0.01" style="fill:red;stroke-width:0"/><rect x="1.281174982275223" y="0.84732030550599202" width="0.01" height="0.01" style="fill:red;stroke-width:0"/></g><g><polyline points="1.28617,0.85232 1.29574,0.8786 1.30298,0.905614 1.30783,0.933156 1.31027,0.961017 1.31027,0.988983 1.30783,1.01684 1.30298,1.04439 1.29574,1.0714 1.28617,1.09768 " stroke-width="0.0050000000000000001" style="stroke:pink;fill:none"/><rect x="1.281174982275223" y="0.84732030550599202" width="0.01" height="0.01" style="fill:red;stroke-width:0"/><rect x="1.281174982275223" y="1.0926796944940085" width="0.01" height="0.01" style="fill:red;stroke-width:0"/></g><g><polyline points="1.28617,1.09768 1.27436,1.12303 1.26037,1.14725 1.24433,1.17016 1.22635,1.19158 1.20658,1.21135 1.18516,1.22933 1.16225,1.24537 1.13803,1.25936 1.11268,1.27117 " stroke-width="0.0050000000000000001" style="stroke:pink;fill:none"/><rect x="1.281174982275223" y="1.0926796944940085" width="0.01" height="0.01" style="fill:red;stroke-width:0"/><rect x="1.1076796944940086" y="1.2661749822752233" width="0.01" height="0.01" style="fill:red;stroke-width:0"/></g><g><polyline points="1.11268,1.27117 1.08654,1.28073 1.05988,1.28816 1.03293,1.29374 1.0059,1.29777 0.978868,1.30058 0.951905,1.30245 0.925025,1.30364 0.898227,1.30434 0.8715,1.30472 0.844829,1.30491 0.818197,1.30498 0.791592,1.305 0.765,1.305 " stroke-width="0.0050000000000000001" style="stroke:pink;fill:none"/><rect x="1.1076796944940086" y="1.2661749822752233" width="0.01" height="0.01" style="fill:red;stroke-width:0"/><rect x="0.76000000000000034" y="1.3000000000000007" width="0.01" height="0.01" style="fill:red;stroke-width:0"/></g><g><polyline points="0.765,1.305 0.73875,1.305 0.7125,1.305 0.68625,1.305 0.66,1.305 " stroke-width="0.0050000000000000001" style="stroke:pink;fill:none"/><rect x="0.76000000000000034" y="1.3000000000000007" width="0.01" height="0.01" style="fill:red;stroke-width:0"/><rect x="0.65500000000000036" y="1.3000000000000007" width="0.01" height="0.01" style="fill:red;stroke-width:0"/></g><g><polyline points="0.66,1.305 0.634615,1.305 0.609231,1.305 0.583846,1.305 0.558462,1.305 0.533077,1.305 0.507692,1.305 0.482308,1.305 0.456923,1.305 0.431538,1.305 0.406154,1.305 0.380769,1.305 0.355385,1.305 0.33,1.305 0.304615,1.305 0.279231,1.305 0.253846,1.305 0.228462,1.305 0.203077,1.305 0.177692,1.305 0.152308,1.305 0.126923,1.305 0.101538,1.305 0.0761538,1.305 0.0507692,1.305 0.0253846,1.305 -9.95366e-17,1.305 " stroke-width="0.0050000000000000001" style="stroke:pink;fill:none"/><rect x="0.65500000000000036" y="1.3000000000000007" width="0.01" height="0.01" style="fill:red;stroke-width:0"/><rect x="-0.0050000000000000443" y="1.3000000000000012" width="0.01" height="0.01" style="fill:red;stroke-width:0"/></g><g><polyline points="1.14857e-17,1.305 -0.02625,1.305 -0.0525,1.305 -0.07875,1.305 -0.105,1.305 " stroke-width="0.0050000000000000001" style="stroke:pink;fill:none"/><rect x="-0.0050000000000000443" y="1.3000000000000012" width="0.01" height="0.01" style="fill:red;stroke-width:0"/><rect x="-0.11000000000000003" y="1.3000000000000014" width="0.01" height="0.01" style="fill:red;stroke-width:0"/></g><g><polyline points="-0.105,1.305 -0.131592,1.305 -0.158197,1.30498 -0.184829,1.30491 -0.2115,1.30472 -0.238227,1.30434 -0.265025,1.30364 -0.291905,1.30245 -0.318868,1.30058 -0.345896,1.29777 -0.372934,1.29374 -0.399876,1.28816 -0.426543,1.28073 -0.45268,1.27117 " stroke-width="0.0050000000000000001" style="stroke:pink;fill:none"/><rect x="-0.11000000000000003" y="1.3000000000000014" width="0.01" height="0.01" style="fill:red;stroke-width:0"/><rect x="-0.45767969449400853" y="1.2661749822752242" width="0.01" height="0.01" style="fill:red;stroke-width:0"/></g><g><polyline points="-0.45268,1.27117 -0.478026,1.25936 -0.502246,1.24537 -0.525155,1.22933 -0.546579,1.21135 -0.566355,1.19158 -0.584331,1.17016 -0.600372,1.14725 -0.614356,1.12303 -0.626175,1.09768 " stroke-width="0.0050000000000000001" style="stroke:pink;fill:none"/><rect x="-0.45767969449400853" y="1.2661749822752242" width="0.01" height="0.01" style="fill:red;stroke-width:0"/><rect x="-0.63117498227522317" y="1.0926796944940098" width="0.01" height="0.01" style="fill:red;stroke-width:0"/></g><g><polyline points="-0.626175,1.09768 -0.63574,1.0714 -0.642979,1.04439 -0.647835,1.01684 -0.650272,0.988983 -0.650272,0.961017 -0.647835,0.933156 -0.642979,0.905614 -0.63574,0.8786 -0.626175,0.85232 " stroke-width="0.0050000000000000001" style="stroke:pink;fill:none"/><rect x="-0.63117498227522317" y="1.0926796944940098" width="0.01" height="0.01" style="fill:red;stroke-width:0"/><rect x="-0.6311749822752234" y="0.84732030550599324" width="0.01" height="0.01" style="fill:red;stroke-width:0"/></g><g><polyline points="-0.626175,0.85232 -0.614356,0.826974 -0.600372,0.802754 -0.584331,0.779845 -0.566355,0.758421 -0.546579,0.738645 -0.525155,0.720669 -0.502246,0.704628 -0.478026,0.690644 -0.45268,0.678825 " stroke-width="0.0050000000000000001" style="stroke:pink;fill:none"/><rect x="-0.6311749822752234" y="0.84732030550599324" width="0.01" height="0.01" style="fill:red;stroke-width:0"/><rect x="-0.45767969449400919" y="0.67382501772477854" width="0.01" height="0.01" style="fill:red;stroke-width:0"/></g><g><polyline points="-0.105,0.645 -0.131592,0.645002 -0.158197,0.645022 -0.184829,0.645094 -0.2115,0.645278 -0.238227,0.645661 -0.265025,0.646365 -0.291905,0.64755 -0.318868,0.649421 -0.345896,0.652227 -0.372934,0.656259 -0.399876,0.661835 -0.426543,0.669271 -0.45268,0.678825 " stroke-width="0.0050000000000000001" style="stroke:pink;fill:none"/><rect x="-0.11000000000000042" y="0.64000000000000079" width="0.01" height="0.01" style="fill:red;stroke-width:0"/><rect x="-0.45767969449400919" y="0.67382501772477854" width="0.01" height="0.01" style="fill:red;stroke-width:0"/></g></g><polyline points="0.66,0.645 0.685016,0.645 0.710033,0.645 0.735049,0.645 0.760066,0.645 0.785084,0.645001 0.810113,0.645012 0.835161,0.645058 0.860239,0.645182 0.885361,0.645445 0.910539,0.645936 0.935785,0.646771 0.961106,0.6481 0.986498,0.650107 1.01194,0.65301 1.03737,0.657061 1.0627,0.662525 1.08776,0.669662 1.11234,0.678686 1.13617,0.689684 1.15901,0.702592 1.18072,0.717325 1.20115,0.733784 1.22017,0.751858 1.23765,0.771428 1.25346,0.792361 1.26752,0.814517 1.27971,0.837748 1.28996,0.861899 1.29821,0.886807 1.30439,0.912306 1.30846,0.938225 1.3104,0.96439 1.3102,0.990626 1.30785,1.01676 1.30337,1.04261 1.29679,1.06801 1.28816,1.09279 1.27752,1.11677 1.26497,1.13981 1.25057,1.16174 1.23443,1.18243 1.21665,1.20172 1.19735,1.21949 1.17666,1.23563 1.15472,1.25002 1.13168,1.26257 1.10769,1.27319 1.08299,1.28184 1.05787,1.28864 1.03251,1.29382 1.00707,1.29763 0.981636,1.30034 0.956256,1.3022 0.93095,1.30342 0.905718,1.30418 0.880551,1.30462 0.855439,1.30485 0.830367,1.30495 0.805323,1.30499 0.780297,1.305 0.75528,1.305 0.730263,1.305 0.705247,1.305 0.68023,1.305 0.655214,1.305 0.630198,1.305 0.605181,1.305 0.580165,1.305 0.555148,1.305 0.530132,1.305 0.505115,1.305 0.480099,1.305 0.455082,1.305 0.430066,1.305 0.405049,1.305 0.380033,1.305 0.355016,1.305 0.33,1.305 0.304984,1.305 0.279967,1.305 0.254951,1.305 0.229934,1.305 0.204918,1.305 0.179901,1.305 0.154885,1.305 0.129868,1.305 0.104852,1.305 0.0798354,1.305 0.0548189,1.305 0.0298024,1.305 0.00478598,1.305 -0.0202305,1.305 -0.0452469,1.305 -0.0702634,1.305 -0.0952799,1.305 -0.120297,1.305 -0.145323,1.30499 -0.170367,1.30495 -0.195439,1.30485 -0.220551,1.30462 -0.245718,1.30418 -0.27095,1.30342 -0.296256,1.3022 -0.321636,1.30034 -0.347069,1.29763 -0.37251,1.29382 -0.397867,1.28864 -0.422994,1.28184 -0.44769,1.27319 -0.471679,1.26257 -0.494721,1.25002 -0.516659,1.23563 -0.537347,1.21949 -0.556646,1.20172 -0.574427,1.18243 -0.59057,1.16174 -0.604968,1.13981 -0.617525,1.11677 -0.628155,1.09279 -0.636789,1.06801 -0.643367,1.04261 -0.647846,1.01676 -0.650196,0.990626 -0.650402,0.96439 -0.648461,0.938225 -0.644387,0.912306 -0.638208,0.886807 -0.629963,0.861899 -0.61971,0.837748 -0.607516,0.814517 -0.593463,0.792361 -0.577645,0.771428 -0.560169,0.751858 -0.541151,0.733784 -0.520718,0.717325 -0.499008,0.702592 -0.476166,0.689684 -0.452343,0.678686 -0.42776,0.669662 -0.402697,0.662525 -0.377372,0.657061 -0.351938,0.65301 -0.326498,0.650107 -0.301106,0.6481 -0.275785,0.646771 -0.250539,0.645936 -0.225361,0.645445 -0.200239,0.645182 -0.175161,0.645058 -0.150113,0.645012 -0.125084,0.645001 -0.100066,0.645 -0.0750494,0.645 -0.0500329,0.645 -0.0250165,0.645 -3.51051e-16,0.645 " stroke="blue" style="stroke-opacity:0.5;stroke-width:0.010;fill:none;marker-end:url(#secArrow-blue)"/><polyline points="1.28617,1.09768 1.27516,1.12147 1.26223,1.14429 1.24749,1.16597 1.23102,1.18637 1.21294,1.20536 1.19337,1.22281 1.17244,1.2386 1.15029,1.25263 1.12706,1.2648 1.10293,1.27503 1.07814,1.2833 1.05297,1.28976 1.02761,1.29465 1.00218,1.29822 0.97677,1.30075 0.95142,1.30248 0.926144,1.3036 0.900941,1.30428 0.875802,1.30468 0.850714,1.30488 0.825665,1.30497 0.800641,1.30499 0.775634,1.305 0.750633,1.305 0.725633,1.305 0.700632,1.305 0.675632,1.305 0.650632,1.305 0.625631,1.305 0.600631,1.305 0.57563,1.305 0.55063,1.305 0.52563,1.305 0.500629,1.305 0.475629,1.305 0.450629,1.305 0.425628,1.305 0.400628,1.305 0.375627,1.305 0.350627,1.305 0.325627,1.305 0.300626,1.305 0.275626,1.305 0.250626,1.305 0.225625,1.305 0.200625,1.305 0.175624,1.305 0.150624,1.305 0.125624,1.305 0.100623,1.305 0.075623,1.305 0.0506226,1.305 0.0256222,1.305 0.000621869,1.305 -0.0243785,1.305 -0.0493789,1.305 -0.0743793,1.305 -0.0993796,1.305 -0.124382,1.305 -0.149394,1.30499 -0.174425,1.30494 -0.199486,1.30482 -0.224591,1.30457 -0.249751,1.30408 -0.274978,1.30326 -0.300281,1.30195 -0.325654,1.29997 -0.351076,1.29711 -0.376495,1.2931 -0.40181,1.28769 -0.426871,1.28062 -0.451457,1.27168 -0.475299,1.26076 -0.498166,1.24793 -0.519908,1.23327 -0.540379,1.21689 -0.559443,1.19889 -0.576972,1.17939 -0.592849,1.15852 -0.606968,1.13643 -0.619234,1.11325 -0.629565,1.08915 -0.637892,1.06429 -0.644159,1.03883 -0.648324,1.01294 -0.65036,0.986802 -0.650253,0.960582 -0.648004,0.934458 -0.643627,0.908606 -0.637152,0.883197 -0.628622,0.858403 -0.618095,0.834389 -0.60564,0.811316 -0.591341,0.789337 -0.575294,0.768601 -0.557607,0.749245 -0.538396,0.7314 -0.517791,0.715184 -0.495931,0.700706 -0.47296,0.688064 -0.449029,0.677339 -0.424384,0.668588 -0.399293,0.661696 -0.373959,0.65644 -0.348537,0.652562 -0.323117,0.649793 -0.29775,0.64789 -0.272456,0.646637 -0.247235,0.645855 -0.222081,0.6454 -0.196982,0.645159 -0.171924,0.645049 -0.146895,0.645009 -0.121885,0.645 -0.0968832,0.645 -0.0718828,0.645 -0.0468824,0.645 -0.0218821,0.645 0.00311832,0.645 0.0281187,0.645 0.0531191,0.645 0.0781194,0.645 0.10312,0.645 0.12812,0.645 0.153121,0.645 0.178121,0.645 0.203121,0.645 0.228122,0.645 0.253122,0.645 0.278122,0.645 0.303123,0.645 0.328123,0.645 0.353124,0.645 0.378124,0.645 0.403124,0.645 0.428125,0.645 0.453125,0.645 0.478125,0.645 0.503126,0.645 0.528126,0.645 0.553127,0.645 0.578127,0.645 0.603127,0.645 0.628128,0.645 0.653128,0.645 0.678128,0.645 0.703129,0.645 0.728129,0.645 0.75313,0.645 0.778131,0.645 0.803139,0.644993 0.828165,0.64496 0.853217,0.644864 0.87831,0.644648 0.903455,0.644231 0.928664,0.643507 0.953948,0.642335 0.979304,0.640542 1.00472,0.637919 1.03014,0.634223 1.0555,0.629192 1.08064,0.62256 1.10537,0.6141 1.12942,0.603671 1.15255,0.591311 1.17459,0.577103 1.19539,0.561142 1.21482,0.543533 1.23274,0.524397 1.24904,0.503859 1.26361,0.482058 1.27635,0.459139 1.28717,0.435256 1.296,0.410569 1.30279,0.385242 1.30748,0.359445 1.31005,0.333351 1.31048,0.307134 1.30877,0.28097 1.30492,0.255034 1.29897,0.229498 1.29094,0.204535 1.28091,0.180311 1.26893,0.156987 1.25508,0.134721 1.23946,0.113661 1.22218,0.0939475 1.20333,0.075713 1.18307,0.0590792 1.16151,0.0441574 1.1388,0.0310475 1.1151,0.0198371 1.0906,0.010595 1.06559,0.00325536 1.0403,-0.0023857 1.0149,-0.00658305 0.989469,-0.00960469 0.964086,-0.0117029 0.938772,-0.0131005 0.913534,-0.0139856 0.888364,-0.0145106 0.863253,-0.0147958 0.838186,-0.014932 0.813151,-0.0149849 0.788136,-0.0149987 0.763133,-0.015 0.738133,-0.015 0.713133,-0.015 0.688132,-0.015 0.663132,-0.015 0.638131,-0.015 0.613131,-0.015 0.588131,-0.015 0.56313,-0.015 0.53813,-0.015 0.51313,-0.015 0.488129,-0.015 0.463129,-0.015 0.438128,-0.015 0.413128,-0.015 0.388128,-0.015 0.363127,-0.015 0.338127,-0.015 0.313127,-0.015 0.288126,-0.015 0.263126,-0.015 0.238125,-0.015 0.213125,-0.015 0.188125,-0.015 0.163124,-0.015 0.138124,-0.015 0.113124,-0.015 0.0881232,-0.015 0.0631228,-0.015 0.0381224,-0.015 0.0131221,-0.015 -0.0118783,-0.015 -0.0368787,-0.015 -0.0618791,-0.015 -0.0868794,-0.015 -0.11188,-0.015 -0.136886,-0.0149963 -0.161906,-0.0149727 -0.186951,-0.0148967 -0.212032,-0.014717 -0.237163,-0.0143597 -0.262355,-0.013724 -0.28762,-0.0126787 -0.312959,-0.0110592 -0.338362,-0.00866494 -0.363791,-0.00526197 -0.389174,-0.000589895 -0.414385,0.00561811 -0.439237,0.0136032 -0.463491,0.0235381 -0.486864,0.0354223 -0.509187,0.0491767 -0.530311,0.0647094 -0.550095,0.0819164 -0.568407,0.100683 -0.585124,0.120883 -0.600135,0.142381 -0.613338,0.165035 -0.624646,0.188692 -0.633982,0.213193 -0.641285,0.238376 -0.646506,0.264071 -0.64961,0.290107 -0.650575,0.316309 -0.649396,0.342503 -0.64608,0.368513 -0.640649,0.394165 -0.633141,0.419287 -0.623604,0.443711 -0.612103,0.467275 -0.598715,0.48982 -0.58353,0.511195 -0.566648,0.531258 -0.548184,0.549874 -0.52826,0.566919 -0.507009,0.582278 -0.484574,0.59585 -0.461106,0.607543 -0.436781,0.617278 -0.411879,0.625078 -0.386644,0.631121 -0.361252,0.635654 -0.335823,0.638945 -0.310426,0.641252 -0.285094,0.642806 -0.259837,0.643803 -0.234651,0.644406 -0.209526,0.644742 -0.184449,0.644908 -0.159407,0.644977 -0.134388,0.644997 -0.109383,0.645 -0.084383,0.645 -0.0593826,0.645 -0.0343822,0.645 -0.00938187,0.645 0.0156185,0.645 0.0406189,0.645 0.0656193,0.645 0.0906196,0.645 0.11562,0.645 0.14062,0.645 0.165621,0.645 0.190621,0.645 0.215621,0.645 0.240622,0.645 0.265622,0.645 0.290623,0.645 0.315623,0.645 0.340623,0.645 0.365624,0.645 0.390624,0.645 0.415624,0.645 0.440625,0.645 0.465625,0.645 0.490626,0.645 0.515626,0.645 0.540626,0.645 0.565627,0.645 0.590627,0.645 0.615627,0.645 0.640628,0.645 0.665628,0.645 0.690629,0.645 0.715629,0.645 0.740629,0.645 0.76563,0.645 0.790634,0.645002 0.815649,0.645018 0.840687,0.645077 0.865758,0.645225 0.890875,0.645529 0.916051,0.646084 0.941297,0.647013 0.966618,0.648472 0.992006,0.650652 1.01743,0.653779 1.04284,0.658109 1.06811,0.663908 1.09307,0.671429 1.1175,0.680869 1.14111,0.692273 1.16371,0.705568 1.18515,0.720665 1.20528,0.737464 1.22397,0.755852 1.2411,0.775706 1.25655,0.796893 1.27021,0.819271 1.282,0.842692 1.29184,0.866997 1.29965,0.892025 1.3054,0.917609 1.30903,0.943576 1.31053,0.969753 1.30989,0.995965 1.30711,1.02204 1.3022,1.04779 1.29521,1.07307 1.28617,1.09768 " stroke="seagreen" style="stroke-opacity:0.5;stroke-width:0.010;fill:none;marker-end:url(#secArrow-seagreen)"/><polyline points="1.83697e-18,-0.015 0.0250691,-0.015 0.0501381,-0.015 0.0752072,-0.015 0.100276,-0.015 0.125345,-0.015 0.150414,-0.015 0.175483,-0.015 0.200552,-0.015 0.225622,-0.015 0.250691,-0.015 0.27576,-0.015 0.300829,-0.015 0.325898,-0.015 0.350967,-0.015 0.376036,-0.015 0.401105,-0.015 0.426174,-0.015 0.451243,-0.015 0.476312,-0.015 0.501381,-0.015 0.52645,-0.015 0.551519,-0.015 0.576588,-0.015 0.601657,-0.015 0.626726,-0.015 0.651795,-0.015 0.676865,-0.015 0.701934,-0.015 0.727003,-0.015 0.752072,-0.015 0.777141,-0.0149998 0.802218,-0.0149938 0.827312,-0.0149621 0.852432,-0.0148684 0.877592,-0.0146563 0.902804,-0.0142455 0.928082,-0.013528 0.953433,-0.0123642 0.978858,-0.0105799 1.00434,-0.00796469 1.02984,-0.00427555 1.05526,0.000753778 1.08048,0.0073904 1.10527,0.0158636 1.1294,0.0263167 1.15259,0.0387108 1.17468,0.0529633 1.19553,0.0689784 1.215,0.0866484 1.23296,0.105854 1.24928,0.126467 1.26386,0.148348 1.27659,0.17135 1.2874,0.195319 1.29621,0.220092 1.30295,0.245503 1.3076,0.271383 1.3101,0.297555 1.31046,0.323845 1.30865,0.350075 1.30471,0.37607 1.29864,0.401654 1.2905,0.426654 1.28034,0.450904 1.26823,0.47424 1.25425,0.496504 1.23848,0.517548 1.22105,0.537229 1.20206,0.555415 1.18165,0.571984 1.15994,0.586825 1.1371,0.599837 1.11326,0.610933 1.08865,0.620049 1.06355,0.627263 1.03817,0.63279 1.01269,0.636888 0.987193,0.639827 0.961746,0.641858 0.93637,0.643204 0.911069,0.644051 0.885837,0.644548 0.860661,0.644815 0.83553,0.644941 0.810429,0.644988 0.785347,0.644999 0.760276,0.645 0.735207,0.645 0.710138,0.645 0.685069,0.645 0.66,0.645 0.634931,0.645 0.609862,0.645 0.584793,0.645 0.559724,0.645 0.534655,0.645 0.509586,0.645 0.484517,0.645 0.459448,0.645 0.434378,0.645 0.409309,0.645 0.38424,0.645 0.359171,0.645 0.334102,0.645 0.309033,0.645 0.283964,0.645 0.258895,0.645 0.233826,0.645 0.208757,0.645 0.183688,0.645 0.158619,0.645 0.13355,0.645 0.108481,0.645 0.0834117,0.645 0.0583427,0.645 0.0332736,0.645 0.00820454,0.645 -0.0168645,0.645 -0.0419336,0.645 -0.0670026,0.645 -0.0920717,0.645 -0.117141,0.645 -0.142218,0.644994 -0.167312,0.644962 -0.192432,0.644868 -0.217592,0.644656 -0.242804,0.644246 -0.268082,0.643528 -0.293433,0.642364 -0.318858,0.64058 -0.344341,0.637965 -0.369837,0.634276 -0.395262,0.629246 -0.420477,0.62261 -0.445273,0.614136 -0.469398,0.603683 -0.492586,0.591289 -0.51468,0.577037 -0.535532,0.561022 -0.555001,0.543352 -0.572957,0.524146 -0.589279,0.503533 -0.603856,0.481652 -0.616591,0.45865 -0.627399,0.434681 -0.636206,0.409908 -0.642954,0.384497 -0.647596,0.358617 -0.650102,0.332445 -0.650455,0.306155 -0.648653,0.279925 -0.644707,0.25393 -0.638644,0.228346 -0.630505,0.203346 -0.620345,0.179096 -0.608231,0.15576 -0.594246,0.133496 -0.578484,0.112452 -0.56105,0.0927711 -0.542062,0.0745848 -0.521648,0.0580157 -0.499945,0.0431751 -0.477098,0.030163 -0.453262,0.0190669 -0.428647,0.00995117 -0.403546,0.00273651 -0.378172,-0.00279027 -0.352687,-0.00688827 -0.327193,-0.00982667 -0.301746,-0.0118581 -0.27637,-0.013204 -0.251069,-0.0140506 -0.225837,-0.0145484 -0.200661,-0.0148154 -0.17553,-0.0149406 -0.150429,-0.0149877 -0.125347,-0.0149992 -0.100276,-0.015 -0.0752072,-0.015 -0.0501381,-0.015 -0.0250691,-0.015 1.83697e-18,-0.015 " stroke="orange" style="stroke-opacity:0.5;stroke-width:0.010;fill:none;marker-end:url(#secArrow-orange)"/><g><polyline points="-0.009,-0.024 1e-10,-0.024 1e-10,-0.006 -0.0045,-0.006 " stroke="lightgrey" fill="none" style="stroke-width:0.004"/></g><g><polyline points="0.669,-0.006 0.66,-0.006 0.66,-0.024 0.6645,-0.024 " stroke="lightgrey" fill="none" style="stroke-width:0.004"/></g><g><polyline points="0.651,-0.024 0.66,-0.024 0.66,-0.006 0.6555,-0.006 " stroke="lightgrey" fill="none" style="stroke-width:0.004"/></g><g><polyline points="1.11755,0.0305841 1.10924,0.0271399 1.11612,0.0105101 1.12028,0.0122322 " stroke="lightgrey" fill="none" style="stroke-width:0.004"/></g><g><polyline points="1.10781,0.00706595 1.11612,0.0105101 1.10924,0.0271399 1.10508,0.0254179 " stroke="lightgrey" fill="none" style="stroke-width:0.004"/></g><g><polyline points="1.2813,0.204079 1.27786,0.195764 1.29449,0.188876 1.29621,0.193034 " stroke="lightgrey" fill="none" style="stroke-width:0.004"/></g><g><polyline points="1.29105,0.180561 1.29449,0.188876 1.27786,0.195764 1.27614,0.191607 " stroke="lightgrey" fill="none" style="stroke-width:0.004"/></g><g><polyline points="1.27442,0.44255 1.27786,0.434236 1.29449,0.441124 1.29277,0.445281 " stroke="lightgrey" fill="none" style="stroke-width:0.004"/></g><g><polyline points="1.29793,0.432809 1.29449,0.441124 1.27786,0.434236 1.27958,0.430078 " stroke="lightgrey" fill="none" style="stroke-width:0.004"/></g><g><polyline points="1.10092,0.606304 1.10924,0.60286 1.11612,0.61949 1.11197,0.621212 " stroke="lightgrey" fill="none" style="stroke-width:0.004"/></g><g><polyline points="1.12444,0.616046 1.11612,0.61949 1.10924,0.60286 1.11339,0.601138 " stroke="lightgrey" fill="none" style="stroke-width:0.004"/></g><g><polyline points="1.08424,0.630985 1.07557,0.633396 1.07075,0.616054 1.07508,0.614848 " stroke="purple" fill="none" style="stroke-width:0.004"/></g><g><polyline points="0.756,0.636 0.765,0.636 0.765,0.654 0.7605,0.654 " stroke="lightgrey" fill="none" style="stroke-width:0.004"/></g><g><polyline points="0.774,0.654 0.765,0.654 0.765,0.636 0.7695,0.636 " stroke="lightgrey" fill="none" style="stroke-width:0.004"/></g><g><polyline points="0.651,0.636 0.66,0.636 0.66,0.654 0.6555,0.654 " stroke="lightgrey" fill="none" style="stroke-width:0.004"/></g><g><polyline points="0.669,0.654 0.66,0.654 0.66,0.636 0.6645,0.636 " stroke="lightgrey" fill="none" style="stroke-width:0.004"/></g><g><polyline points="-0.009,0.636 9.99999e-11,0.636 9.99999e-11,0.654 -0.0045,0.654 " stroke="lightgrey" fill="none" style="stroke-width:0.004"/></g><g><polyline points="0.009,0.654 -1e-10,0.654 -1e-10,0.636 0.0045,0.636 " stroke="lightgrey" fill="none" style="stroke-width:0.004"/></g><g><polyline points="-0.114,0.636 -0.105,0.636 -0.105,0.654 -0.1095,0.654 " stroke="lightgrey" fill="none" style="stroke-width:0.004"/></g><g><polyline points="-0.096,0.654 -0.105,0.654 -0.105,0.636 -0.1005,0.636 " stroke="lightgrey" fill="none" style="stroke-width:0.004"/></g><g><polyline points="-0.419421,0.613643 -0.410749,0.616054 -0.415571,0.633396 -0.419906,0.632191 " stroke="purple" fill="none" style="stroke-width:0.004"/></g><g><polyline points="-0.45755,0.599416 -0.449236,0.60286 -0.456124,0.61949 -0.460281,0.617768 " stroke="lightgrey" fill="none" style="stroke-width:0.004"/></g><g><polyline points="-0.447809,0.622934 -0.456124,0.61949 -0.449236,0.60286 -0.445078,0.604582 " stroke="lightgrey" fill="none" style="stroke-width:0.004"/></g><g><polyline points="-0.621304,0.425921 -0.61786,0.434236 -0.63449,0.441124 -0.636212,0.436966 " stroke="lightgrey" fill="none" style="stroke-width:0.004"/></g><g><polyline points="-0.631046,0.449439 -0.63449,0.441124 -0.61786,0.434236 -0.616138,0.438393 " stroke="lightgrey" fill="none" style="stroke-width:0.004"/></g><g><polyline points="-0.614416,0.18745 -0.61786,0.195764 -0.63449,0.188876 -0.632768,0.184719 " stroke="lightgrey" fill="none" style="stroke-width:0.004"/></g><g><polyline points="-0.637934,0.197191 -0.63449,0.188876 -0.61786,0.195764 -0.619582,0.199922 " stroke="lightgrey" fill="none" style="stroke-width:0.004"/></g><g><polyline points="-0.440921,0.0236958 -0.449236,0.0271399 -0.456124,0.0105101 -0.451966,0.00878803 " stroke="lightgrey" fill="none" style="stroke-width:0.004"/></g><g><polyline points="-0.464439,0.0139543 -0.456124,0.0105101 -0.449236,0.0271399 -0.453393,0.028862 " stroke="lightgrey" fill="none" style="stroke-width:0.004"/></g><g><polyline points="0.009,-0.006 -1e-10,-0.006 -1e-10,-0.024 0.0045,-0.024 " stroke="lightgrey" fill="none" style="stroke-width:0.004"/></g><g><polyline points="0.756,0.636 0.765,0.636 0.765,0.654 0.7605,0.654 " stroke="lightgrey" fill="none" style="stroke-width:0.004"/></g><g><polyline points="1.07942,0.676357 1.07075,0.673946 1.07557,0.656604 1.07991,0.657809 " stroke="purple" fill="none" style="stroke-width:0.004"/></g><g><polyline points="1.11755,0.690584 1.10924,0.68714 1.11612,0.67051 1.12028,0.672232 " stroke="lightgrey" fill="none" style="stroke-width:0.004"/></g><g><polyline points="1.10781,0.667066 1.11612,0.67051 1.10924,0.68714 1.10508,0.685418 " stroke="lightgrey" fill="none" style="stroke-width:0.004"/></g><g><polyline points="1.2813,0.864079 1.27786,0.855764 1.29449,0.848876 1.29621,0.853034 " stroke="lightgrey" fill="none" style="stroke-width:0.004"/></g><g><polyline points="1.29105,0.840561 1.29449,0.848876 1.27786,0.855764 1.27614,0.851607 " stroke="lightgrey" fill="none" style="stroke-width:0.004"/></g><g><polyline points="1.27442,1.10255 1.27786,1.09424 1.29449,1.10112 1.29277,1.10528 " stroke="lightgrey" fill="none" style="stroke-width:0.004"/></g><g><polyline points="1.29793,1.09281 1.29449,1.10112 1.27786,1.09424 1.27958,1.09008 " stroke="lightgrey" fill="none" style="stroke-width:0.004"/></g><g><polyline points="1.10092,1.2663 1.10924,1.26286 1.11612,1.27949 1.11197,1.28121 " stroke="lightgrey" fill="none" style="stroke-width:0.004"/></g><g><polyline points="1.12444,1.27605 1.11612,1.27949 1.10924,1.26286 1.11339,1.26114 " stroke="lightgrey" fill="none" style="stroke-width:0.004"/></g><g><polyline points="0.651,1.296 0.66,1.296 0.66,1.314 0.6555,1.314 " stroke="lightgrey" fill="none" style="stroke-width:0.004"/></g><g><polyline points="0.669,1.314 0.66,1.314 0.66,1.296 0.6645,1.296 " stroke="lightgrey" fill="none" style="stroke-width:0.004"/></g><g><polyline points="-0.009,1.296 9.99999e-11,1.296 9.99999e-11,1.314 -0.0045,1.314 " stroke="lightgrey" fill="none" style="stroke-width:0.004"/></g><g><polyline points="0.009,1.314 -1e-10,1.314 -1e-10,1.296 0.0045,1.296 " stroke="lightgrey" fill="none" style="stroke-width:0.004"/></g><g><polyline points="-0.45755,1.25942 -0.449236,1.26286 -0.456124,1.27949 -0.460281,1.27777 " stroke="lightgrey" fill="none" style="stroke-width:0.004"/></g><g><polyline points="-0.447809,1.28293 -0.456124,1.27949 -0.449236,1.26286 -0.445078,1.26458 " stroke="lightgrey" fill="none" style="stroke-width:0.004"/></g><g><polyline points="-0.621304,1.08592 -0.61786,1.09424 -0.63449,1.10112 -0.636212,1.09697 " stroke="lightgrey" fill="none" style="stroke-width:0.004"/></g><g><polyline points="-0.631046,1.10944 -0.63449,1.10112 -0.61786,1.09424 -0.616138,1.09839 " stroke="lightgrey" fill="none" style="stroke-width:0.004"/></g><g><polyline points="-0.614416,0.84745 -0.61786,0.855764 -0.63449,0.848876 -0.632768,0.844719 " stroke="lightgrey" fill="none" style="stroke-width:0.004"/></g><g><polyline points="-0.637934,0.857191 -0.63449,0.848876 -0.61786,0.855764 -0.619582,0.859922 " stroke="lightgrey" fill="none" style="stroke-width:0.004"/></g><g><polyline points="-0.440921,0.683696 -0.449236,0.68714 -0.456124,0.67051 -0.451966,0.668788 " stroke="lightgrey" fill="none" style="stroke-width:0.004"/></g><g><polyline points="-0.096,0.654 -0.105,0.654 -0.105,0.636 -0.1005,0.636 " stroke="lightgrey" fill="none" style="stroke-width:0.004"/></g><g><polyline points="-0.424242,0.659015 -0.415571,0.656604 -0.410749,0.673946 -0.415085,0.675152 " stroke="purple" fill="none" style="stroke-width:0.004"/></g><g><polyline points="-0.464439,0.673954 -0.456124,0.67051 -0.449236,0.68714 -0.453393,0.688862 " stroke="lightgrey" fill="none" style="stroke-width:0.004"/></g></g></svg>