<?xml version="1.0" encoding="UTF-8" standalone="no"?>
<!-- Generator: Adobe Illustrator 20.0.0, SVG Export Plug-In . SVG Version: 6.00 Build 0)  -->

<svg
   xmlns:osb="http://www.openswatchbook.org/uri/2009/osb"
   xmlns:dc="http://purl.org/dc/elements/1.1/"
   xmlns:cc="http://creativecommons.org/ns#"
   xmlns:rdf="http://www.w3.org/1999/02/22-rdf-syntax-ns#"
   xmlns:svg="http://www.w3.org/2000/svg"
   xmlns="http://www.w3.org/2000/svg"
   xmlns:xlink="http://www.w3.org/1999/xlink"
   xmlns:sodipodi="http://sodipodi.sourceforge.net/DTD/sodipodi-0.dtd"
   xmlns:inkscape="http://www.inkscape.org/namespaces/inkscape"
   version="1.1"
   id="Ebene_1"
   x="0px"
   y="0px"
   viewBox="0 0 32 32"
   xml:space="preserve"
   width="32px"
   height="32px"
   class="br-symbol-library"
   sodipodi:docname="AcknowledgeAll.svg"
   style="enable-background:new 0 0 32 32;"
   inkscape:version="0.92.4 (5da689c313, 2019-01-14)"><metadata
   id="metadata11"><rdf:RDF><cc:Work
       rdf:about=""><dc:format>image/svg+xml</dc:format><dc:type
         rdf:resource="http://purl.org/dc/dcmitype/StillImage" /></cc:Work></rdf:RDF></metadata><defs
   id="defs9"><linearGradient
     inkscape:collect="always"
     xlink:href="#linearGradient839"
     id="linearGradient841"
     x1="-0.69204664"
     y1="25"
     x2="50.692047"
     y2="25"
     gradientUnits="userSpaceOnUse" /><linearGradient
     id="linearGradient839"
     osb:paint="solid"><stop
       style="stop-color:#ffffff;stop-opacity:1;"
       offset="0"
       id="stop837" /></linearGradient></defs><sodipodi:namedview
   pagecolor="#ffffff"
   bordercolor="#666666"
   borderopacity="1"
   objecttolerance="10"
   gridtolerance="10"
   guidetolerance="10"
   inkscape:pageopacity="0"
   inkscape:pageshadow="2"
   inkscape:window-width="1920"
   inkscape:window-height="1017"
   id="namedview7"
   showgrid="false"
   inkscape:zoom="14.75"
   inkscape:cx="32.615403"
   inkscape:cy="27.526468"
   inkscape:window-x="1912"
   inkscape:window-y="1072"
   inkscape:window-maximized="1"
   inkscape:current-layer="Acknowledge" />
<g
   id="Acknowledge">
	
<g
   id="Alarm"
   transform="matrix(0.60348672,0,0,0.60348672,1.9904972,9.4644478)"><path
     id="Alarm_3_"
     d="m 17.155,12.542 h -2.31 c -0.315,0 -0.555,0.25 -0.555,0.565 v 2.165 c 0,0.238 0.028,0.643 0.075,0.875 l 0.788,3.93 c 0.048,0.233 0.28,0.465 0.52,0.465 h 0.678 c 0.237,0 0.485,-0.232 0.533,-0.465 l 0.792,-3.95 c 0.048,-0.233 0.115,-0.617 0.115,-0.855 V 13.107 C 17.79,12.792 17.47,12.542 17.155,12.542 Z m 0.203,9.25 h -2.635 c -0.24,0 -0.433,0.193 -0.433,0.433 v 2.635 c 0,0.238 0.193,0.432 0.433,0.432 h 2.635 c 0.238,0 0.432,-0.195 0.432,-0.432 v -2.635 c 0,-0.241 -0.195,-0.433 -0.432,-0.433 z m 0,0 h -2.635 c -0.24,0 -0.433,0.193 -0.433,0.433 v 2.635 c 0,0.238 0.193,0.432 0.433,0.432 h 2.635 c 0.238,0 0.432,-0.195 0.432,-0.432 v -2.635 c 0,-0.241 -0.195,-0.433 -0.432,-0.433 z m -0.203,-9.25 h -2.31 c -0.315,0 -0.555,0.25 -0.555,0.565 v 2.165 c 0,0.238 0.028,0.643 0.075,0.875 l 0.788,3.93 c 0.048,0.233 0.28,0.465 0.52,0.465 h 0.678 c 0.237,0 0.485,-0.232 0.533,-0.465 l 0.792,-3.95 c 0.048,-0.233 0.115,-0.617 0.115,-0.855 V 13.107 C 17.79,12.792 17.47,12.542 17.155,12.542 Z M 31.771,27.236 17.5,3.078 C 17.193,2.541 16.62,2.208 16,2.208 c -0.62,0 -1.19,0.333 -1.5,0.87 L 0.229,27.236 c -0.308,0.535 -0.305,1.175 0.003,1.71 0.31,0.533 0.88,0.845 1.498,0.845 h 28.541 c 0.618,0 1.188,-0.312 1.498,-0.845 0.307,-0.535 0.309,-1.175 0.002,-1.71 z M 4.715,26.292 16,6.925 27.288,26.291 H 4.715 Z m 12.643,-4.5 h -2.635 c -0.24,0 -0.433,0.193 -0.433,0.433 v 2.635 c 0,0.238 0.193,0.432 0.433,0.432 h 2.635 c 0.238,0 0.432,-0.195 0.432,-0.432 v -2.635 c 0,-0.241 -0.195,-0.433 -0.432,-0.433 z M 14.29,13.106 v 2.165 c 0,0.238 0.028,0.643 0.075,0.875 l 0.788,3.93 c 0.048,0.233 0.28,0.465 0.52,0.465 h 0.678 c 0.237,0 0.485,-0.232 0.533,-0.465 l 0.792,-3.95 c 0.048,-0.233 0.115,-0.617 0.115,-0.855 v -2.165 c 0,-0.315 -0.32,-0.565 -0.635,-0.565 h -2.31 c -0.316,10e-4 -0.556,0.251 -0.556,0.565 z"
     inkscape:connector-curvature="0" /></g><g
   id="Ebene_1_1_-6"
   transform="matrix(0.66830638,0,0,0.66830638,0.09222485,8.1141835)" /><g
   transform="matrix(0.3290196,0,0,0.3290196,13.935784,4.7985061)"
   id="Layer_1_1_"><path
     inkscape:connector-curvature="0"
     d="M 49,1 H 1 V 49 H 49 Z M 47,47 H 3 V 3 h 44 z"
     id="path2"
     style="stroke:url(#linearGradient841);stroke-width:0.8162176;stroke-miterlimit:4;stroke-dasharray:none;stroke-opacity:1" /><polygon
     points="8.707,12.293 7.293,13.707 12,18.414 21.707,8.707 20.293,7.293 12,15.586 "
     id="polygon4" /><rect
     height="2"
     width="18"
     x="25"
     y="12"
     id="rect6" /><polygon
     points="8.707,24.293 7.293,25.707 12,30.414 21.707,20.707 20.293,19.293 12,27.586 "
     id="polygon8" /><rect
     height="2"
     width="18"
     x="25"
     y="24"
     id="rect10" /><polygon
     points="8.707,36.293 7.293,37.707 12,42.414 21.707,32.707 20.293,31.293 12,39.586 "
     id="polygon12" /><rect
     height="2"
     width="18"
     x="25"
     y="36"
     id="rect14" /></g></g>
<g
   id="Ebene_1_1_">
</g>
</svg>