<?xml version="1.0" ?><!DOCTYPE svg  PUBLIC '-//W3C//DTD SVG 1.1//EN'  'http://www.w3.org/Graphics/SVG/1.1/DTD/svg11.dtd'><svg enable-background="new 0 0 24 24" height="24px" id="Layer_1" version="1.1" viewBox="0 0 24 24" width="24px" xml:space="preserve" xmlns="http://www.w3.org/2000/svg" xmlns:xlink="http://www.w3.org/1999/xlink"><path d="M20,12h-3c-1.5,0-2.9,0.6-4,1.5V9v0c0-2.2,1.8-4,4-4h3v3l4-4l-4-4v3h-3c-2.1,0-3.9,1.1-5,2.7C10.9,4.1,9.1,3,7,3H4V0L0,4  l4,4V5h3c2.2,0,4,1.8,4,4h0v15h2v-6c0-2.2,1.8-4,4-4h3v3l4-4l-4-4V12z"/></svg>