<?xml version="1.0" encoding="UTF-8" standalone="no"?>
<svg
   xmlns:dc="http://purl.org/dc/elements/1.1/"
   xmlns:cc="http://creativecommons.org/ns#"
   xmlns:rdf="http://www.w3.org/1999/02/22-rdf-syntax-ns#"
   xmlns:svg="http://www.w3.org/2000/svg"
   xmlns="http://www.w3.org/2000/svg"
   height="418.69501"
   version="1.1"
   viewBox="0 0 459.99799 418.69501"
   width="459.99799"
   xml:space="preserve"
   id="svg8"><metadata
     id="metadata14"><rdf:RDF><cc:Work
         rdf:about=""><dc:format>image/svg+xml</dc:format><dc:type
           rdf:resource="http://purl.org/dc/dcmitype/StillImage" /><dc:title></dc:title></cc:Work></rdf:RDF></metadata><defs
     id="defs12" /><g
     id="_x31_91_x2C__Data_x2C__framework_x2C__App_x2C__cluster_x2C__complex"
     transform="translate(-26.001,-46.652)"><g
       id="g4"><path
         d="m 370.781,97.678 v 0.096 0.098 0.161 0.097 0.16 0.097 0.161 l 0.018,0.097 0.018,0.161 v 0.094 0.162 0.096 l 0.015,0.161 0.018,0.065 v 0.16 l 0.031,0.096 v 0.162 l 0.018,0.096 0.015,0.161 v 0.097 l 0.031,0.162 v 0.063 l 0.031,0.192 v 0.065 l 0.035,0.161 0.014,0.096 0.018,0.162 0.015,0.063 0.035,0.193 0.014,0.065 0.032,0.16 0.018,0.064 0.031,0.193 0.018,0.064 0.031,0.16 0.014,0.064 0.05,0.193 v 0.064 l 0.049,0.161 0.018,0.063 0.032,0.193 0.031,0.064 0.049,0.161 0.014,0.065 0.05,0.16 0.017,0.064 0.047,0.193 0.018,0.064 0.063,0.16 0.018,0.064 0.049,0.161 0.031,0.065 0.05,0.192 0.015,0.032 0.066,0.193 0.014,0.031 0.063,0.194 0.017,0.031 0.064,0.193 0.035,0.032 0.063,0.193 0.014,0.032 0.066,0.192 0.015,0.033 0.099,0.226 0.08,0.192 0.014,0.032 0.082,0.194 0.018,0.031 0.094,0.193 0.018,0.031 0.081,0.162 0.018,0.031 0.081,0.193 0.031,0.032 0.095,0.193 v 0.032 l 0.099,0.16 0.014,0.033 0.112,0.193 v 0.031 l 0.099,0.193 h 0.031 l 0.098,0.193 0.015,0.032 0.112,0.193 v 0 l 0.112,0.192 0.018,0.033 0.112,0.16 0.018,0.033 0.112,0.16 0.014,0.032 0.116,0.192 0.014,0.033 0.13,0.16 v 0.033 l 0.126,0.161 v 0.031 l 0.131,0.161 0.018,0.032 0.126,0.161 0.018,0.033 0.13,0.16 v 0.032 l 0.126,0.161 0.035,0.031 0.126,0.161 v 0 l 0.148,0.194 h 0.014 l 0.13,0.193 h 0.014 l 0.147,0.16 v 0.032 l 0.162,0.161 v 0 l 0.157,0.192 v 0 l 0.161,0.161 v 0 l 0.162,0.193 0.161,0.162 0.161,0.16 0.031,0.032 0.064,0.063 0.066,0.098 v 0 l 0.08,0.064 0.081,0.064 c 3.573,3.508 8.497,5.697 13.937,5.697 h 0.098 c 5.457,-0.031 10.399,-2.253 13.972,-5.826 3.604,-3.605 5.843,-8.596 5.843,-14.102 0,-5.504 -2.238,-10.494 -5.843,-14.1 -3.59,-3.574 -8.581,-5.826 -14.069,-5.826 -5.503,0 -10.494,2.252 -14.098,5.826 -3.583,3.633 -5.805,8.559 -5.84,14.032 M 103.99,117.701 h 0.112 0.095 0.161 0.098 0.162 0.095 l 0.162,-0.031 h 0.098 0.144 0.112 0.144 l 0.099,-0.033 h 0.161 0.081 l 0.158,-0.032 h 0.098 0.162 l 0.095,-0.031 h 0.162 l 0.081,-0.032 h 0.161 l 0.081,-0.033 h 0.161 l 0.095,-0.032 h 0.162 l 0.081,-0.032 0.179,-0.031 h 0.063 l 0.162,-0.033 h 0.095 l 0.162,-0.031 0.063,-0.033 0.179,-0.031 h 0.081 l 0.162,-0.032 0.063,-0.032 0.179,-0.033 0.078,-0.031 0.161,-0.032 h 0.067 l 0.175,-0.063 h 0.063 l 0.179,-0.065 h 0.063 l 0.162,-0.063 h 0.063 l 0.179,-0.065 h 0.049 l 0.193,-0.064 0.045,-0.032 0.179,-0.031 0.063,-0.033 0.162,-0.063 h 0.063 l 0.179,-0.065 0.049,-0.032 0.175,-0.063 h 0.049 l 0.193,-0.064 0.031,-0.033 0.193,-0.063 0.031,-0.032 0.193,-0.064 0.035,-0.032 0.193,-0.065 h 0.032 l 0.175,-0.096 h 0.049 l 0.175,-0.097 h 0.049 l 0.161,-0.097 0.049,-0.031 0.175,-0.065 0.032,-0.032 0.193,-0.097 h 0.035 l 0.176,-0.097 0.049,-0.031 0.162,-0.064 0.031,-0.032 0.193,-0.097 h 0.031 l 0.179,-0.129 h 0.014 l 0.193,-0.096 0.032,-0.033 0.161,-0.096 h 0.032 l 0.193,-0.129 h 0.018 l 0.176,-0.13 h 0.035 l 0.158,-0.128 h 0.035 l 0.175,-0.129 h 0.018 l 0.193,-0.129 v 0 l 0.193,-0.129 h 0.014 l 0.179,-0.129 0.014,-0.031 0.179,-0.129 h 0.014 l 0.179,-0.129 0.014,-0.032 0.179,-0.129 h 0.018 l 0.175,-0.129 v -0.032 l 0.193,-0.129 v 0 l 0.175,-0.161 h 0.018 l 0.162,-0.129 v 0 l 0.193,-0.161 v 0 l 0.175,-0.16 v 0 l 0.179,-0.161 v 0 l 0.175,-0.161 0.179,-0.161 0.161,-0.16 0.176,-0.161 v 0 c 3.59,-3.605 5.826,-8.596 5.826,-14.102 v -0.096 c -0.014,-5.473 -2.253,-10.398 -5.826,-14.004 -3.604,-3.574 -8.595,-5.826 -14.083,-5.826 -5.507,0 -10.494,2.252 -14.084,5.826 -3.607,3.605 -5.843,8.596 -5.843,14.1 0,5.506 2.236,10.496 5.843,14.102 3.571,3.562 8.512,5.784 13.97,5.815 z m 20.021,266.779 v -0.097 -0.098 -0.16 -0.097 -0.162 -0.096 l -0.014,-0.16 v -0.098 -0.161 l -0.018,-0.097 -0.014,-0.16 v -0.097 -0.161 -0.097 l -0.035,-0.161 v -0.064 l -0.014,-0.16 -0.018,-0.097 -0.014,-0.161 -0.018,-0.097 v -0.161 l -0.031,-0.096 v -0.162 l -0.032,-0.064 -0.018,-0.16 -0.014,-0.098 -0.035,-0.16 v -0.097 l -0.031,-0.161 -0.014,-0.064 -0.035,-0.16 -0.014,-0.097 -0.031,-0.161 -0.018,-0.064 -0.032,-0.161 -0.018,-0.097 -0.032,-0.16 -0.031,-0.065 -0.032,-0.16 -0.018,-0.097 -0.049,-0.162 -0.014,-0.063 -0.049,-0.161 -0.014,-0.064 -0.049,-0.193 -0.018,-0.032 -0.049,-0.192 -0.014,-0.064 -0.049,-0.162 -0.032,-0.063 -0.049,-0.161 -0.014,-0.064 -0.067,-0.193 -0.014,-0.032 -0.049,-0.192 -0.032,-0.033 -0.067,-0.193 -0.014,-0.063 -0.067,-0.161 -0.014,-0.064 -0.063,-0.16 -0.035,-0.064 -0.063,-0.161 -0.032,-0.065 -0.098,-0.192 -0.063,-0.193 -0.017,-0.032 -0.081,-0.193 -0.031,-0.032 -0.063,-0.192 -0.032,-0.032 -0.081,-0.194 -0.018,-0.031 -0.095,-0.161 -0.018,-0.032 -0.081,-0.193 -0.032,-0.031 -0.081,-0.193 -0.018,-0.033 -0.095,-0.16 -0.032,-0.032 -0.098,-0.192 v -0.033 l -0.095,-0.161 -0.032,-0.032 -0.098,-0.192 -0.032,-0.032 -0.098,-0.162 -0.014,-0.031 -0.112,-0.162 -0.018,-0.031 -0.112,-0.193 v 0 l -0.13,-0.193 -0.014,-0.031 -0.112,-0.162 -0.018,-0.031 -0.112,-0.162 -0.032,-0.031 -0.112,-0.161 -0.018,-0.032 -0.13,-0.16 v -0.033 l -0.126,-0.16 -0.035,-0.033 -0.126,-0.161 v -0.031 l -0.144,-0.161 -0.018,-0.032 -0.13,-0.161 v 0 l -0.161,-0.193 v 0 l -0.144,-0.193 v 0 l -0.144,-0.161 h -0.018 L 119,371.171 h -0.018 l -0.144,-0.161 v 0 l -0.162,-0.192 -0.161,-0.162 -0.176,-0.193 -0.161,-0.16 c -3.604,-3.605 -8.595,-5.827 -14.083,-5.827 h -0.112 c -5.458,0.032 -10.399,2.254 -13.972,5.827 -3.607,3.605 -5.843,8.595 -5.843,14.101 0,5.505 2.236,10.462 5.843,14.067 3.59,3.605 8.577,5.859 14.084,5.859 5.489,0 10.479,-2.254 14.083,-5.859 3.58,-3.593 5.819,-8.55 5.833,-13.991 z m 266.796,-20.024 h -0.098 -0.113 -0.143 -0.113 -0.144 -0.099 -0.161 l -0.095,0.032 h -0.161 -0.099 -0.158 -0.098 l -0.162,0.032 h -0.08 -0.176 l -0.08,0.032 h -0.162 -0.08 l -0.176,0.032 h -0.081 l -0.161,0.032 h -0.099 l -0.161,0.033 h -0.063 l -0.175,0.031 -0.081,0.032 h -0.161 l -0.081,0.032 -0.179,0.031 h -0.063 l -0.176,0.033 h -0.081 l -0.161,0.064 h -0.063 l -0.178,0.031 -0.082,0.033 -0.16,0.031 h -0.064 l -0.178,0.064 h -0.064 l -0.175,0.033 -0.066,0.031 -0.161,0.033 -0.063,0.031 -0.176,0.032 -0.066,0.032 -0.176,0.064 h -0.063 l -0.161,0.064 h -0.066 l -0.176,0.064 -0.049,0.032 -0.193,0.032 -0.049,0.032 -0.176,0.064 -0.049,0.032 -0.176,0.064 h -0.049 l -0.179,0.064 -0.046,0.032 -0.179,0.063 -0.063,0.033 -0.161,0.064 h -0.063 l -0.211,0.096 -0.175,0.097 h -0.05 l -0.179,0.097 h -0.031 l -0.193,0.096 h -0.031 l -0.176,0.098 -0.049,0.031 -0.162,0.065 -0.049,0.032 -0.176,0.096 h -0.031 l -0.18,0.097 -0.031,0.032 -0.179,0.097 h -0.031 l -0.193,0.097 -0.033,0.042 -0.176,0.096 -0.018,0.033 -0.192,0.096 h -0.032 l -0.161,0.129 h -0.031 l -0.18,0.129 h -0.014 l -0.193,0.096 -0.018,0.033 -0.176,0.129 h -0.031 l -0.161,0.129 h -0.035 l -0.176,0.128 h -0.018 l -0.175,0.129 -0.018,0.032 -0.176,0.129 h -0.018 l -0.176,0.129 h -0.018 l -0.176,0.129 -0.018,0.031 -0.175,0.13 h -0.018 l -0.161,0.16 H 378.2 l -0.179,0.129 v 0.032 l -0.193,0.129 v 0 l -0.161,0.161 h -0.015 l -0.178,0.161 v 0 l -0.158,0.16 h -0.018 l -0.176,0.161 -0.162,0.161 -0.178,0.161 -0.176,0.161 c -3.607,3.605 -5.83,8.595 -5.83,14.101 v 0.097 c 0.035,5.44 2.257,10.397 5.83,13.971 3.604,3.605 8.595,5.859 14.098,5.859 5.488,0 10.479,-2.254 14.069,-5.859 3.604,-3.605 5.843,-8.563 5.843,-14.067 0,-5.506 -2.238,-10.495 -5.843,-14.101 -3.567,-3.574 -8.509,-5.796 -13.966,-5.828 z M 103.99,260.99 h 0.112 0.095 0.161 0.098 0.162 0.095 0.162 0.098 0.144 l 0.112,-0.033 h 0.144 0.099 0.161 l 0.081,-0.031 h 0.158 0.098 l 0.162,-0.033 h 0.095 l 0.162,-0.031 h 0.081 l 0.161,-0.032 h 0.081 l 0.161,-0.032 h 0.095 l 0.162,-0.033 h 0.081 l 0.179,-0.031 h 0.063 l 0.162,-0.032 0.095,-0.032 0.162,-0.031 h 0.063 l 0.179,-0.033 0.081,-0.032 0.162,-0.032 h 0.063 l 0.179,-0.032 0.078,-0.032 0.161,-0.032 0.067,-0.032 0.175,-0.032 0.063,-0.032 0.179,-0.031 0.063,-0.033 0.162,-0.032 0.063,-0.031 0.179,-0.032 0.049,-0.033 0.193,-0.031 0.045,-0.033 0.179,-0.064 h 0.063 l 0.162,-0.064 0.063,-0.031 0.179,-0.064 h 0.049 l 0.175,-0.064 0.049,-0.032 0.193,-0.063 h 0.031 l 0.193,-0.098 h 0.031 l 0.193,-0.064 0.035,-0.032 0.193,-0.064 0.032,-0.032 0.175,-0.064 0.049,-0.032 0.175,-0.063 0.049,-0.033 0.161,-0.063 0.049,-0.032 0.175,-0.098 h 0.032 l 0.193,-0.096 0.035,-0.033 0.176,-0.063 0.049,-0.032 0.162,-0.097 h 0.031 l 0.193,-0.097 0.031,-0.032 0.179,-0.097 0.014,-0.031 0.193,-0.098 h 0.032 l 0.161,-0.097 0.032,-0.031 0.193,-0.097 0.018,-0.032 0.176,-0.097 0.035,-0.033 0.158,-0.096 0.035,-0.033 0.175,-0.096 0.018,-0.031 0.193,-0.098 v -0.031 l 0.193,-0.129 h 0.014 l 0.179,-0.13 h 0.014 l 0.179,-0.128 0.014,-0.032 0.179,-0.129 h 0.014 l 0.179,-0.13 h 0.018 l 0.175,-0.16 v 0 l 0.193,-0.129 v 0 l 0.175,-0.16 h 0.018 l 0.162,-0.162 v 0 l 0.193,-0.16 v 0 l 0.175,-0.129 v -0.032 l 0.179,-0.128 v -0.033 l 0.175,-0.129 0.179,-0.193 0.161,-0.16 0.176,-0.161 c 3.573,-3.573 5.812,-8.53 5.826,-13.972 v -0.096 -0.129 c -0.014,-5.441 -2.253,-10.398 -5.826,-13.973 -3.604,-3.605 -8.595,-5.826 -14.083,-5.826 h -0.112 c -5.458,0.031 -10.399,2.254 -13.972,5.826 -3.607,3.605 -5.843,8.596 -5.843,14.102 0,5.472 2.236,10.462 5.843,14.067 3.571,3.562 8.512,5.816 13.97,5.816 z m 142.917,-143.289 0.548,-0.031 0.516,0.031 c 5.278,-0.16 10.044,-2.35 13.518,-5.826 3.608,-3.605 5.83,-8.596 5.83,-14.102 v -0.096 c -0.035,-5.473 -2.254,-10.398 -5.83,-14.004 -3.604,-3.574 -8.594,-5.826 -14.083,-5.826 -5.503,0 -10.479,2.252 -14.083,5.826 -3.59,3.605 -5.812,8.531 -5.843,14.004 v 0.096 0.098 0.161 0.097 0.16 l 0.018,0.097 v 0.161 0.097 l 0.014,0.161 V 98.9 l 0.018,0.162 v 0.096 0.161 l 0.014,0.065 0.018,0.16 v 0.096 l 0.032,0.162 v 0.096 l 0.018,0.161 0.014,0.097 0.018,0.162 0.018,0.063 0.014,0.192 0.018,0.065 0.014,0.161 0.018,0.096 0.031,0.162 v 0.063 l 0.032,0.193 0.032,0.065 0.018,0.16 0.017,0.064 0.032,0.193 0.014,0.064 0.049,0.16 v 0.064 l 0.031,0.193 0.035,0.064 0.032,0.161 0.014,0.063 0.049,0.193 0.018,0.064 0.046,0.161 0.017,0.065 0.049,0.16 0.014,0.064 0.049,0.193 0.032,0.064 0.049,0.16 0.018,0.064 0.063,0.161 v 0.065 l 0.063,0.192 0.018,0.032 0.063,0.193 0.018,0.031 0.063,0.194 0.032,0.031 0.066,0.193 v 0.032 l 0.081,0.193 0.014,0.032 0.067,0.192 0.032,0.033 0.095,0.226 0.066,0.192 0.032,0.032 0.063,0.194 0.032,0.031 0.081,0.193 0.018,0.031 0.081,0.162 0.014,0.031 0.099,0.193 0.014,0.032 0.081,0.193 0.031,0.032 0.099,0.16 v 0.033 l 0.098,0.193 0.031,0.031 0.095,0.193 h 0.017 l 0.095,0.193 0.017,0.032 0.095,0.193 h 0.035 l 0.095,0.192 0.018,0.033 0.112,0.16 0.014,0.033 0.116,0.16 0.014,0.032 0.112,0.192 0.018,0.033 0.112,0.16 0.032,0.033 0.112,0.161 0.018,0.031 0.126,0.161 v 0.032 l 0.13,0.161 0.018,0.033 0.126,0.16 0.018,0.032 0.13,0.161 0.014,0.031 0.13,0.161 h 0.018 l 0.126,0.194 h 0.018 l 0.144,0.193 v 0 l 0.144,0.16 0.018,0.032 0.144,0.161 v 0 l 0.162,0.192 v 0 l 0.144,0.161 h 0.017 l 0.162,0.193 0.162,0.162 0.161,0.16 0.176,0.193 c 3.465,3.503 8.26,5.724 13.573,5.852 z m 123.874,122.621 c 0.067,0.258 0.081,0.516 0.081,0.773 0,0.256 -0.014,0.482 -0.081,0.74 0.193,5.182 2.383,9.883 5.83,13.327 3.604,3.604 8.595,5.827 14.098,5.827 h 0.098 c 5.457,0 10.399,-2.254 13.972,-5.827 3.604,-3.605 5.843,-8.596 5.843,-14.067 0,-5.506 -2.238,-10.496 -5.843,-14.102 -3.572,-3.572 -8.515,-5.795 -13.972,-5.826 h -0.098 -0.113 -0.143 -0.113 -0.144 -0.099 -0.161 -0.095 l -0.161,0.031 h -0.099 -0.158 -0.098 -0.162 l -0.08,0.033 h -0.176 -0.08 l -0.162,0.032 h -0.08 l -0.176,0.032 h -0.081 l -0.161,0.031 h -0.099 l -0.161,0.033 h -0.063 l -0.175,0.031 h -0.081 l -0.161,0.033 h -0.081 l -0.179,0.031 -0.063,0.032 -0.176,0.032 h -0.081 l -0.161,0.033 -0.063,0.032 -0.178,0.031 h -0.082 l -0.16,0.065 h -0.064 l -0.178,0.031 -0.064,0.032 -0.175,0.032 -0.066,0.032 -0.161,0.032 -0.063,0.033 -0.176,0.031 -0.066,0.032 -0.176,0.032 -0.063,0.033 -0.161,0.063 h -0.066 l -0.176,0.063 h -0.049 l -0.193,0.065 -0.049,0.032 -0.176,0.064 h -0.049 l -0.176,0.064 -0.049,0.031 -0.179,0.064 h -0.046 l -0.179,0.097 h -0.063 l -0.161,0.065 -0.063,0.031 -0.211,0.096 -0.175,0.065 -0.05,0.032 -0.179,0.064 -0.031,0.033 -0.193,0.096 h -0.031 l -0.176,0.097 h -0.049 l -0.162,0.097 -0.049,0.031 -0.176,0.064 -0.031,0.033 -0.18,0.096 h -0.031 l -0.179,0.098 -0.031,0.031 -0.193,0.096 -0.031,0.033 -0.176,0.096 h -0.018 l -0.192,0.098 -0.032,0.032 -0.161,0.097 -0.031,0.032 -0.18,0.097 -0.014,0.032 -0.193,0.097 -0.018,0.031 -0.176,0.097 -0.031,0.032 -0.161,0.097 -0.035,0.032 -0.176,0.129 h -0.018 l -0.175,0.129 h -0.018 l -0.176,0.129 -0.018,0.032 -0.176,0.129 h -0.018 l -0.176,0.128 -0.018,0.033 -0.175,0.129 h -0.018 l -0.161,0.129 -0.015,0.031 -0.179,0.129 v 0 l -0.193,0.161 v 0 l -0.161,0.161 h -0.015 l -0.178,0.16 v 0 l -0.158,0.162 H 377.3 l -0.176,0.16 -0.162,0.161 -0.178,0.161 -0.176,0.16 c -3.444,3.456 -5.633,8.157 -5.827,13.339 z m -123.874,20.668 0.548,-0.033 0.498,0.033 c 4.91,-0.129 9.384,-2.061 12.795,-5.119 0.193,-0.387 0.436,-0.74 0.74,-1.03 0.292,-0.29 0.614,-0.548 0.969,-0.708 3.008,-3.477 4.844,-8.016 4.861,-12.941 v -0.096 -0.129 c -0.035,-5.441 -2.254,-10.398 -5.83,-13.973 -3.491,-3.477 -8.271,-5.697 -13.584,-5.826 l -0.449,0.031 -0.484,-0.031 c -5.342,0.097 -10.157,2.317 -13.648,5.826 v 0 c -3.443,3.445 -5.633,8.146 -5.826,13.36 0.031,0.226 0.063,0.483 0.063,0.741 0,0.225 -0.032,0.482 -0.063,0.707 0.161,4.701 1.961,8.982 4.843,12.33 0.34,0.16 0.691,0.418 0.983,0.708 0.305,0.322 0.547,0.644 0.74,1.03 3.41,3.092 7.92,4.991 12.844,5.12 z m 1.063,103.466 -0.516,0.032 -0.548,-0.032 c -5.313,0.129 -10.107,2.351 -13.585,5.827 -3.604,3.605 -5.843,8.595 -5.843,14.101 v 0.097 c 0.031,5.44 2.253,10.397 5.843,13.971 3.604,3.605 8.581,5.859 14.083,5.859 5.489,0 10.479,-2.254 14.083,-5.859 3.576,-3.573 5.795,-8.53 5.83,-13.971 v -0.097 -0.098 -0.16 -0.097 -0.162 -0.096 -0.16 l -0.018,-0.098 -0.018,-0.161 v -0.097 -0.16 -0.097 l -0.015,-0.161 -0.018,-0.097 v -0.161 l -0.014,-0.064 -0.018,-0.16 v -0.097 l -0.031,-0.161 V 382 l -0.032,-0.161 v -0.096 l -0.031,-0.162 v -0.064 l -0.035,-0.16 v -0.098 l -0.031,-0.16 -0.015,-0.097 -0.031,-0.161 -0.018,-0.064 -0.031,-0.16 v -0.097 l -0.05,-0.161 -0.018,-0.064 -0.031,-0.161 -0.014,-0.097 -0.035,-0.16 -0.015,-0.065 -0.049,-0.16 -0.014,-0.097 -0.035,-0.162 -0.032,-0.063 -0.031,-0.161 -0.031,-0.064 -0.032,-0.193 -0.031,-0.032 -0.049,-0.192 -0.018,-0.064 -0.063,-0.162 v -0.063 l -0.066,-0.161 -0.015,-0.064 -0.049,-0.193 -0.031,-0.032 -0.063,-0.192 -0.018,-0.033 -0.063,-0.193 -0.018,-0.063 -0.063,-0.161 -0.018,-0.064 -0.081,-0.16 v -0.064 l -0.081,-0.161 -0.014,-0.065 -0.081,-0.16 -0.018,-0.032 -0.08,-0.193 -0.015,-0.032 -0.08,-0.193 -0.018,-0.032 -0.095,-0.192 v -0.032 l -0.099,-0.194 -0.014,-0.031 -0.081,-0.161 -0.035,-0.032 -0.081,-0.193 -0.014,-0.031 -0.099,-0.193 -0.014,-0.033 -0.099,-0.16 -0.014,-0.032 -0.099,-0.192 -0.031,-0.033 -0.099,-0.161 -0.014,-0.032 -0.099,-0.192 -0.014,-0.032 -0.112,-0.162 -0.018,-0.031 -0.112,-0.162 -0.018,-0.031 -0.095,-0.193 h -0.031 l -0.112,-0.193 -0.018,-0.031 -0.112,-0.162 -0.018,-0.031 -0.127,-0.162 v -0.031 l -0.129,-0.161 -0.018,-0.032 -0.112,-0.16 -0.032,-0.033 -0.13,-0.16 v -0.033 l -0.126,-0.161 -0.031,-0.031 -0.13,-0.161 v -0.032 l -0.145,-0.161 h -0.018 l -0.13,-0.193 h -0.014 l -0.147,-0.193 v 0 l -0.158,-0.161 v 0 l -0.161,-0.192 v 0 l -0.147,-0.161 h -0.014 l -0.162,-0.192 -0.161,-0.162 -0.161,-0.193 -0.162,-0.16 c -3.464,-3.497 -8.23,-5.687 -13.509,-5.848 z m 87.082,-209.315 -0.583,-0.547 v 0 l -0.063,-0.064 h -0.032 l -0.063,-0.064 -0.049,-0.031 -0.031,-0.033 c -2.594,-2.254 -5.973,-3.605 -9.676,-3.605 -4.089,0 -7.791,1.674 -10.462,4.346 -2.688,2.672 -4.345,6.406 -4.345,10.495 0,3.638 1.319,7.019 3.506,9.593 l 0.035,0.065 0.288,0.29 0.306,0.321 0.21,0.192 c 2.671,2.674 6.373,4.346 10.462,4.346 4.088,0 7.791,-1.641 10.479,-4.313 2.688,-2.704 4.345,-6.406 4.345,-10.495 0,-4.089 -1.656,-7.824 -4.327,-10.496 z m 7.401,-3.509 c 3.029,3.863 4.829,8.725 4.829,14.004 0,6.246 -2.541,11.943 -6.647,16.032 -4.137,4.152 -9.819,6.696 -16.08,6.696 -5.278,0 -10.139,-1.804 -14.003,-4.829 l -40.868,40.852 c 2.737,3.67 4.604,8.016 5.264,12.749 h 88.205 c 0.87,-6.117 3.702,-11.589 7.857,-15.743 l 0.207,-0.193 0.049,-0.031 0.145,-0.161 0.08,-0.063 0.131,-0.129 0.111,-0.13 0.081,-0.063 0.161,-0.129 0.031,-0.033 0.211,-0.193 h 0.014 l 0.193,-0.192 0.066,-0.032 0.145,-0.129 0.112,-0.097 0.099,-0.097 0.158,-0.128 0.066,-0.032 0.192,-0.162 0.015,-0.031 0.21,-0.162 0.032,-0.031 0.192,-0.129 0.067,-0.064 0.144,-0.129 0.112,-0.064 0.112,-0.096 0.161,-0.13 0.049,-0.031 0.063,-0.032 0.368,-0.258 0.035,-0.032 0.032,-0.032 0.192,-0.129 0.081,-0.031 0.161,-0.098 0.127,-0.096 0.098,-0.064 0.176,-0.129 0.049,-0.032 0.225,-0.129 h 0.018 l 0.225,-0.161 0.049,-0.032 0.193,-0.097 0.096,-0.064 0.129,-0.097 0.162,-0.097 0.094,-0.031 0.211,-0.129 h 0.018 l 0.256,-0.129 0.018,-0.033 0.225,-0.096 0.081,-0.064 0.161,-0.064 0.127,-0.097 0.13,-0.032 0.179,-0.096 0.063,-0.033 0.242,-0.129 h 0.014 l 0.242,-0.129 h 0.032 l 0.225,-0.128 0.098,-0.032 0.162,-0.064 0.144,-0.064 0.112,-0.033 0.193,-0.096 0.066,-0.031 0.256,-0.098 v 0 l 0.256,-0.096 0.05,-0.033 0.21,-0.096 0.113,-0.033 0.144,-0.063 0.179,-0.065 0.095,-0.031 0.225,-0.064 0.05,-0.032 0.256,-0.097 h 0.018 l 0.256,-0.064 0.066,-0.033 0.193,-0.063 0.127,-0.032 0.146,-0.064 0.193,-0.032 0.08,-0.032 0.242,-0.064 h 0.032 l 0.273,-0.097 h 0.015 l 0.26,-0.063 0.08,-0.033 0.193,-0.032 0.144,-0.031 0.13,-0.032 0.207,-0.064 0.081,-0.032 0.26,-0.032 h 0.014 l 0.274,-0.064 0.049,-0.033 0.242,-0.031 0.095,-0.032 0.179,-0.032 0.176,-0.033 h 0.098 l 0.238,-0.031 0.05,-0.032 0.291,-0.032 v 0 l 0.288,-0.031 V 125.33 l -0.288,-0.031 v 0 l -0.291,-0.064 h -0.05 l -0.238,-0.031 -0.098,-0.033 -0.176,-0.032 -0.179,-0.032 h -0.095 l -0.242,-0.064 h -0.049 l -0.274,-0.064 h -0.014 l -0.26,-0.064 h -0.081 l -0.207,-0.064 -0.13,-0.031 -0.144,-0.032 -0.193,-0.065 h -0.08 l -0.26,-0.063 h -0.015 l -0.273,-0.097 h -0.032 l -0.242,-0.064 -0.08,-0.032 -0.193,-0.064 -0.146,-0.032 -0.127,-0.032 -0.193,-0.065 -0.066,-0.031 -0.256,-0.096 h -0.018 l -0.256,-0.098 h -0.05 l -0.225,-0.096 -0.095,-0.033 -0.179,-0.064 -0.144,-0.031 -0.113,-0.064 -0.21,-0.064 -0.05,-0.033 -0.256,-0.096 v 0 l -0.256,-0.097 -0.066,-0.032 -0.193,-0.097 -0.112,-0.032 -0.144,-0.064 -0.162,-0.097 -0.098,-0.031 -0.225,-0.098 -0.032,-0.032 -0.242,-0.096 -0.014,-0.033 -0.242,-0.096 -0.063,-0.033 -0.179,-0.096 -0.13,-0.064 -0.127,-0.064 -0.161,-0.097 -0.081,-0.032 -0.225,-0.129 h -0.018 l -0.256,-0.129 -0.018,-0.032 -0.211,-0.128 -0.094,-0.033 -0.162,-0.096 -0.129,-0.064 -0.096,-0.064 -0.193,-0.129 -0.049,-0.031 -0.225,-0.129 h -0.018 l -0.225,-0.162 -0.049,-0.031 -0.176,-0.097 -0.098,-0.065 -0.127,-0.096 -0.161,-0.098 -0.081,-0.063 -0.192,-0.129 -0.032,-0.032 h -0.035 l -0.368,-0.289 -0.063,-0.033 -0.049,-0.031 -0.161,-0.129 -0.112,-0.064 -0.018,-0.032 z m -17.898,-8.724 c 4.411,0 8.531,1.256 12.01,3.412 l 31.852,-31.871 -0.014,-0.031 -0.08,-0.097 -0.131,-0.161 -0.031,-0.064 -0.031,-0.032 -0.273,-0.386 -0.018,-0.033 -0.032,-0.032 -0.112,-0.192 -0.063,-0.064 -0.1,-0.162 -0.098,-0.127 -0.063,-0.098 -0.131,-0.192 -0.014,-0.032 -0.145,-0.258 v 0 l -0.16,-0.227 -0.032,-0.063 -0.099,-0.16 -0.063,-0.13 -0.081,-0.129 -0.081,-0.16 -0.066,-0.064 -0.112,-0.226 -0.014,-0.032 -0.13,-0.225 -0.018,-0.033 -0.112,-0.225 -0.046,-0.064 -0.08,-0.162 -0.067,-0.127 -0.063,-0.129 -0.098,-0.193 -0.031,-0.065 -0.113,-0.225 -0.014,-0.032 -0.112,-0.226 -0.018,-0.063 -0.099,-0.194 -0.045,-0.097 -0.081,-0.16 -0.066,-0.162 -0.032,-0.096 -0.094,-0.193 -0.035,-0.064 -0.096,-0.258 v 0 l -0.098,-0.257 -0.031,-0.065 -0.081,-0.193 -0.046,-0.127 -0.049,-0.162 -0.066,-0.16 -0.031,-0.097 -0.082,-0.226 -0.014,-0.032 -0.098,-0.259 v -0.031 l -0.081,-0.258 -0.032,-0.064 -0.063,-0.192 -0.031,-0.129 -0.049,-0.129 -0.05,-0.193 -0.032,-0.097 -0.063,-0.225 v -0.033 l -0.098,-0.289 v -0.033 l -0.064,-0.225 -0.031,-0.096 -0.035,-0.194 -0.031,-0.128 -0.031,-0.129 -0.063,-0.226 v -0.063 l -0.067,-0.258 v -0.033 l -0.063,-0.257 -0.018,-0.064 -0.045,-0.226 -0.018,-0.096 -0.032,-0.194 -0.032,-0.161 -0.018,-0.129 -0.031,-0.225 -0.018,-0.032 -0.045,-0.29 v 0 l -0.035,-0.289 h -88.205 l -0.035,0.289 v 0 l -0.045,0.29 -0.018,0.032 -0.032,0.225 -0.018,0.129 -0.031,0.161 -0.031,0.194 -0.018,0.096 -0.046,0.226 -0.018,0.064 -0.063,0.257 v 0.033 l -0.049,0.258 -0.018,0.063 -0.046,0.226 -0.049,0.129 -0.031,0.128 -0.032,0.194 -0.035,0.096 -0.063,0.225 v 0.033 l -0.081,0.289 -0.018,0.033 -0.063,0.225 -0.031,0.097 -0.049,0.193 -0.05,0.129 -0.031,0.129 -0.063,0.192 -0.031,0.064 -0.081,0.258 v 0.031 l -0.098,0.259 -0.015,0.032 -0.066,0.226 -0.046,0.097 -0.066,0.16 -0.046,0.162 -0.049,0.127 -0.081,0.193 -0.018,0.065 -0.112,0.257 v 0 l -0.095,0.258 -0.034,0.064 -0.078,0.193 -0.049,0.096 -0.066,0.162 -0.081,0.16 -0.031,0.097 -0.112,0.194 -0.015,0.063 -0.115,0.226 v 0.032 l -0.126,0.225 -0.032,0.065 -0.098,0.193 -0.05,0.129 -0.063,0.127 -0.099,0.162 -0.046,0.064 -0.112,0.225 -0.018,0.033 -0.13,0.225 -0.014,0.032 -0.112,0.226 -0.049,0.064 -0.099,0.16 -0.081,0.129 -0.063,0.13 -0.095,0.16 -0.035,0.063 -0.158,0.227 v 0 l -0.13,0.258 -0.031,0.032 -0.13,0.192 -0.063,0.098 -0.099,0.127 -0.095,0.162 -0.049,0.064 -0.13,0.192 -0.031,0.032 -0.018,0.033 -0.257,0.386 -0.049,0.032 -0.031,0.064 -0.13,0.161 -0.081,0.097 -0.077,0.129 -0.116,0.16 -0.063,0.064 -0.145,0.193 -0.018,0.032 -0.175,0.192 -0.018,0.033 -0.162,0.193 -0.045,0.064 -0.116,0.16 -0.095,0.097 -0.098,0.097 -0.127,0.162 -0.031,0.063 -0.196,0.192 v 0 l -0.193,0.227 h -0.014 l -0.162,0.192 -0.063,0.065 -0.112,0.128 -0.13,0.129 -0.063,0.065 -0.161,0.16 -0.035,0.032 -0.193,0.192 c -4.151,4.153 -9.609,7.019 -15.691,7.887 v 88.209 c 4.713,0.675 9.043,2.542 12.683,5.246 l 41.191,-41.174 c -2.19,-3.477 -3.446,-7.598 -3.446,-11.976 0,-6.278 2.544,-11.976 6.665,-16.097 4.107,-4.083 9.789,-6.626 16.068,-6.626 z m -143.837,12.233 c -2.671,-2.672 -6.374,-4.346 -10.462,-4.346 -3.667,0 -7.016,1.352 -9.609,3.542 l -0.049,0.031 -0.319,0.29 -0.323,0.29 -0.193,0.192 c -2.671,2.672 -4.331,6.406 -4.331,10.495 0,4.089 1.66,7.791 4.331,10.462 2.688,2.705 6.391,4.346 10.493,4.346 4.088,0 7.791,-1.672 10.462,-4.346 l 0.547,-0.578 0.067,-0.065 v 0 l 0.063,-0.063 0.063,-0.064 0.018,-0.032 c 2.239,-2.576 3.59,-5.956 3.59,-9.658 0,-4.09 -1.674,-7.824 -4.348,-10.496 z m 3.527,28.394 c -3.846,3.025 -8.725,4.829 -13.989,4.829 -6.275,0 -11.943,-2.544 -16.063,-6.665 -4.12,-4.12 -6.679,-9.817 -6.679,-16.063 0,-5.279 1.818,-10.173 4.829,-14.004 l -31.568,-31.58 -0.032,0.032 -0.095,0.064 -0.161,0.129 -0.063,0.031 -0.035,0.033 -0.386,0.289 h -0.032 l -0.031,0.032 -0.193,0.129 -0.081,0.063 -0.144,0.098 -0.13,0.096 -0.095,0.065 -0.196,0.097 -0.046,0.031 -0.242,0.162 v 0 l -0.225,0.129 -0.066,0.031 -0.176,0.129 -0.112,0.064 -0.13,0.064 -0.161,0.096 -0.063,0.033 -0.225,0.128 -0.031,0.032 -0.242,0.129 h -0.018 l -0.225,0.129 -0.063,0.032 -0.193,0.097 -0.116,0.064 -0.126,0.064 -0.179,0.096 -0.063,0.033 -0.225,0.096 -0.031,0.033 -0.242,0.096 -0.049,0.032 -0.21,0.098 -0.081,0.031 -0.176,0.097 -0.144,0.064 -0.112,0.032 -0.193,0.097 -0.066,0.032 -0.242,0.097 v 0 l -0.274,0.096 -0.045,0.033 -0.211,0.064 -0.112,0.064 -0.161,0.031 -0.162,0.064 -0.095,0.033 -0.225,0.096 h -0.035 l -0.273,0.098 h -0.014 l -0.26,0.096 -0.063,0.031 -0.193,0.065 -0.13,0.032 -0.144,0.032 -0.176,0.064 -0.098,0.032 -0.242,0.064 H 111.7 l -0.291,0.097 h -0.032 l -0.225,0.063 h -0.098 l -0.193,0.065 -0.144,0.032 -0.13,0.031 -0.207,0.064 h -0.067 l -0.273,0.064 h -0.014 l -0.274,0.064 h -0.049 l -0.225,0.064 h -0.112 l -0.179,0.032 -0.161,0.032 -0.126,0.033 -0.228,0.031 h -0.046 l -0.291,0.064 v 0 l -0.274,0.031 v 88.209 l 0.274,0.031 v 0 l 0.291,0.032 0.046,0.032 0.228,0.031 h 0.126 l 0.161,0.033 0.179,0.032 0.112,0.032 0.225,0.031 0.049,0.033 0.274,0.064 h 0.014 l 0.273,0.032 0.067,0.032 0.207,0.064 0.13,0.032 0.144,0.031 0.193,0.032 0.098,0.033 0.225,0.063 h 0.032 l 0.291,0.097 h 0.014 l 0.242,0.064 0.098,0.032 0.176,0.032 0.144,0.064 0.13,0.032 0.193,0.063 0.063,0.033 0.26,0.064 h 0.014 l 0.273,0.097 0.035,0.032 0.225,0.064 0.095,0.031 0.162,0.065 0.161,0.063 0.112,0.033 0.211,0.096 0.045,0.033 0.274,0.096 v 0 l 0.242,0.098 0.066,0.031 0.193,0.096 0.112,0.033 0.144,0.064 0.176,0.064 0.081,0.032 0.21,0.128 h 0.049 l 0.242,0.129 h 0.031 l 0.225,0.129 0.063,0.033 0.179,0.096 0.126,0.032 0.116,0.097 0.193,0.064 0.063,0.064 0.225,0.096 0.018,0.033 0.242,0.129 h 0.031 l 0.225,0.129 0.063,0.031 0.161,0.097 0.13,0.097 0.112,0.064 0.176,0.097 0.066,0.032 0.225,0.161 v 0 l 0.242,0.129 0.046,0.032 0.196,0.129 0.095,0.064 0.13,0.096 0.144,0.098 0.081,0.031 0.193,0.129 0.031,0.032 0.032,0.032 0.386,0.258 0.035,0.032 0.063,0.031 0.161,0.13 0.095,0.096 0.13,0.064 0.144,0.129 0.081,0.064 0.193,0.129 0.018,0.031 0.207,0.162 0.035,0.031 0.193,0.162 0.063,0.032 0.144,0.128 0.112,0.097 0.098,0.097 0.162,0.129 0.049,0.032 0.193,0.192 h 0.014 l 0.193,0.193 0.031,0.033 0.179,0.129 0.081,0.063 0.126,0.13 0.116,0.129 0.077,0.063 0.162,0.161 0.035,0.031 0.193,0.193 c 4.152,4.154 7.016,9.626 7.886,15.743 h 88.176 c 0.674,-4.733 2.541,-9.11 5.278,-12.749 z m -13.989,-40.627 c 6.261,0 11.96,2.543 16.066,6.631 4.103,4.121 6.661,9.818 6.661,16.097 0,4.378 -1.271,8.499 -3.443,11.976 l 41.173,41.174 c 3.671,-2.735 8.033,-4.604 12.782,-5.279 V 125.33 c -6.135,-0.868 -11.624,-3.701 -15.775,-7.887 l -0.193,-0.192 -0.049,-0.032 -0.144,-0.16 -0.081,-0.065 -0.112,-0.129 -0.13,-0.128 -0.063,-0.065 -0.161,-0.192 h -0.018 l -0.193,-0.227 h -0.014 l -0.162,-0.192 -0.049,-0.063 -0.13,-0.162 -0.081,-0.097 -0.095,-0.097 -0.13,-0.16 -0.045,-0.064 -0.162,-0.193 -0.018,-0.033 -0.161,-0.192 -0.032,-0.032 -0.144,-0.193 -0.049,-0.064 -0.13,-0.16 -0.081,-0.129 -0.081,-0.097 -0.126,-0.161 -0.031,-0.064 -0.035,-0.032 -0.256,-0.386 -0.032,-0.033 -0.031,-0.032 -0.13,-0.192 -0.049,-0.064 -0.095,-0.162 -0.098,-0.127 -0.049,-0.098 -0.126,-0.192 -0.031,-0.032 -0.147,-0.258 v 0 l -0.144,-0.227 -0.032,-0.063 -0.112,-0.16 -0.066,-0.13 -0.081,-0.129 -0.095,-0.16 -0.032,-0.064 -0.13,-0.226 v -0.032 l -0.144,-0.225 -0.018,-0.033 -0.112,-0.225 -0.049,-0.064 -0.095,-0.162 -0.067,-0.127 -0.045,-0.129 -0.099,-0.193 -0.031,-0.065 -0.112,-0.225 v -0.032 l -0.13,-0.226 -0.014,-0.063 -0.112,-0.194 -0.035,-0.097 -0.063,-0.16 -0.063,-0.162 -0.066,-0.096 -0.063,-0.193 -0.031,-0.064 -0.099,-0.258 h -0.014 l -0.112,-0.257 v -0.065 l -0.099,-0.193 -0.031,-0.127 -0.063,-0.162 -0.066,-0.16 -0.032,-0.097 -0.081,-0.226 -0.018,-0.032 -0.095,-0.259 v -0.031 l -0.081,-0.258 -0.018,-0.064 -0.063,-0.192 -0.049,-0.129 -0.046,-0.129 -0.049,-0.193 -0.032,-0.097 -0.067,-0.225 -0.014,-0.033 -0.067,-0.289 v -0.033 l -0.063,-0.225 -0.032,-0.096 -0.049,-0.194 -0.049,-0.128 -0.032,-0.129 -0.032,-0.226 -0.031,-0.063 -0.049,-0.258 v -0.033 l -0.063,-0.257 -0.018,-0.064 -0.032,-0.226 -0.032,-0.096 -0.031,-0.194 -0.035,-0.161 -0.014,-0.129 -0.032,-0.225 -0.018,-0.032 -0.049,-0.29 v 0 l -0.046,-0.289 h -88.176 l -0.049,0.289 v 0 l -0.049,0.29 v 0.032 l -0.045,0.225 -0.018,0.129 -0.032,0.161 -0.032,0.194 -0.018,0.096 -0.049,0.226 -0.014,0.064 -0.049,0.257 -0.017,0.033 -0.046,0.258 -0.032,0.063 -0.035,0.226 -0.032,0.129 -0.032,0.128 -0.063,0.194 -0.018,0.096 -0.063,0.225 -0.017,0.033 -0.063,0.289 v 0.033 l -0.081,0.225 -0.018,0.097 -0.063,0.193 -0.049,0.129 -0.049,0.129 -0.045,0.192 -0.018,0.064 -0.095,0.258 v 0.031 l -0.098,0.259 -0.018,0.032 -0.081,0.226 -0.031,0.097 -0.063,0.16 -0.063,0.162 -0.035,0.127 -0.077,0.193 -0.018,0.065 -0.098,0.257 h -0.014 l -0.112,0.258 -0.018,0.064 -0.081,0.193 -0.049,0.096 -0.063,0.162 -0.081,0.16 -0.031,0.097 -0.098,0.194 -0.032,0.063 -0.112,0.226 -0.014,0.032 -0.098,0.225 -0.049,0.065 -0.081,0.193 -0.063,0.129 -0.063,0.127 -0.098,0.162 -0.032,0.064 -0.13,0.225 v 0.033 l -0.144,0.225 -0.018,0.032 -0.126,0.226 -0.032,0.064 -0.098,0.16 -0.063,0.129 -0.081,0.13 -0.112,0.16 -0.031,0.063 -0.13,0.227 v 0 l -0.162,0.258 -0.032,0.032 -0.112,0.192 -0.066,0.098 -0.081,0.127 -0.095,0.162 -0.063,0.064 -0.13,0.192 -0.032,0.032 -0.018,0.033 -0.273,0.386 -0.032,0.032 -0.032,0.064 -0.129,0.161 -0.063,0.097 -0.032,0.031 31.87,31.871 c 3.477,-2.16 7.601,-3.416 12.009,-3.416 z m 11.848,162.829 c -2.671,-2.479 -6.247,-4.024 -10.174,-4.024 -4.088,0 -7.791,1.674 -10.479,4.347 -2.685,2.671 -4.327,6.374 -4.327,10.462 0,3.959 1.526,7.533 4.008,10.173 l 0.014,0.032 0.162,0.129 0.067,0.098 0.077,0.063 c 2.688,2.671 6.391,4.346 10.479,4.346 4.089,0 7.792,-1.675 10.479,-4.346 2.688,-2.673 4.345,-6.407 4.345,-10.495 0,-4.023 -1.607,-7.693 -4.201,-10.365 l -0.081,-0.065 -0.225,-0.192 z m 8.321,-2.415 c 2.657,3.734 4.232,8.274 4.232,13.199 0,6.277 -2.541,11.943 -6.647,16.064 -4.138,4.12 -9.819,6.695 -16.081,6.695 -4.924,0 -9.497,-1.576 -13.213,-4.249 l -32.466,32.481 0.063,0.098 0.098,0.096 0.063,0.129 0.129,0.161 0.032,0.032 0.032,0.064 0.273,0.354 0.018,0.033 0.032,0.064 0.13,0.161 0.063,0.097 0.095,0.16 0.081,0.129 0.066,0.097 0.112,0.192 0.032,0.033 0.162,0.225 v 0 l 0.13,0.258 0.031,0.032 0.112,0.193 0.081,0.097 0.063,0.129 0.098,0.16 0.032,0.097 0.126,0.194 0.018,0.031 0.144,0.258 v 0.032 l 0.13,0.225 0.032,0.065 0.098,0.16 0.063,0.129 0.063,0.129 0.081,0.16 0.049,0.098 0.098,0.225 0.014,0.033 0.112,0.225 0.032,0.032 0.098,0.226 0.031,0.096 0.081,0.162 0.063,0.16 0.049,0.097 0.081,0.193 0.018,0.065 0.112,0.256 h 0.014 l 0.098,0.258 0.018,0.064 0.077,0.193 0.035,0.129 0.063,0.129 0.063,0.193 0.031,0.096 0.081,0.193 0.018,0.064 0.098,0.258 v 0 l 0.095,0.258 0.018,0.097 0.045,0.192 0.049,0.129 0.049,0.129 0.063,0.193 0.018,0.097 0.081,0.226 v 0.031 l 0.063,0.291 h 0.017 l 0.063,0.257 0.018,0.097 0.063,0.193 0.032,0.129 0.032,0.129 0.035,0.225 0.032,0.064 0.046,0.258 h 0.017 l 0.049,0.29 0.014,0.063 0.049,0.226 0.018,0.097 0.032,0.193 0.032,0.161 0.018,0.097 0.045,0.226 v 0.063 l 0.049,0.29 v 0 l 0.049,0.29 h 88.176 l 0.046,-0.29 v 0 l 0.049,-0.29 0.018,-0.063 0.032,-0.226 0.014,-0.097 0.035,-0.161 0.031,-0.193 0.032,-0.097 0.032,-0.226 0.018,-0.063 0.063,-0.29 v 0 l 0.049,-0.258 0.031,-0.064 0.032,-0.225 0.032,-0.129 0.049,-0.129 0.049,-0.193 0.032,-0.097 0.063,-0.257 v 0 l 0.067,-0.291 0.014,-0.031 0.067,-0.226 0.032,-0.097 0.049,-0.193 0.046,-0.129 0.049,-0.129 0.063,-0.192 0.018,-0.097 0.081,-0.258 v 0 l 0.095,-0.258 0.018,-0.064 0.081,-0.193 0.032,-0.096 0.066,-0.193 0.063,-0.129 0.031,-0.129 0.099,-0.193 v -0.064 l 0.112,-0.258 h 0.014 l 0.099,-0.256 0.031,-0.065 0.063,-0.193 0.066,-0.097 0.063,-0.16 0.063,-0.162 0.035,-0.096 0.112,-0.226 0.014,-0.032 0.13,-0.225 v -0.033 l 0.112,-0.225 0.031,-0.098 0.099,-0.16 0.045,-0.129 0.067,-0.129 0.095,-0.16 0.049,-0.065 0.112,-0.225 0.018,-0.032 0.144,-0.258 v -0.031 l 0.13,-0.194 0.032,-0.097 0.095,-0.16 0.081,-0.129 0.066,-0.097 0.112,-0.193 0.032,-0.032 0.144,-0.258 v 0 l 0.147,-0.225 0.031,-0.033 0.126,-0.192 0.049,-0.097 0.098,-0.129 0.095,-0.16 0.049,-0.097 0.13,-0.161 0.031,-0.064 0.032,-0.033 0.256,-0.354 0.035,-0.064 0.031,-0.032 0.126,-0.161 0.081,-0.129 0.081,-0.096 0.13,-0.161 0.049,-0.065 0.144,-0.192 0.032,-0.032 0.161,-0.225 h 0.018 l 0.162,-0.194 0.045,-0.063 0.13,-0.161 0.095,-0.097 0.081,-0.098 0.13,-0.16 0.049,-0.064 0.162,-0.193 h 0.014 l 0.193,-0.225 0.018,-0.032 0.161,-0.161 0.063,-0.064 0.13,-0.129 0.112,-0.129 0.081,-0.064 0.144,-0.16 0.049,-0.064 0.193,-0.193 c 4.151,-4.152 9.64,-7.019 15.775,-7.855 v -88.174 c -4.829,-0.678 -9.272,-2.608 -12.975,-5.441 z m -18.495,-9.528 c 4.766,0 9.178,1.481 12.845,3.991 l 40.208,-40.207 c -2.67,-3.606 -4.475,-7.889 -5.148,-12.556 h -88.176 c -0.87,6.116 -3.734,11.589 -7.886,15.741 l -0.193,0.193 -0.035,0.033 -0.162,0.16 -0.077,0.098 -0.116,0.096 -0.126,0.129 -0.081,0.064 -0.179,0.16 h -0.031 l -0.193,0.194 -0.014,0.032 -0.193,0.16 -0.049,0.032 -0.162,0.129 -0.098,0.097 -0.112,0.096 -0.144,0.13 -0.063,0.032 -0.193,0.16 -0.035,0.033 -0.207,0.16 -0.018,0.033 -0.193,0.129 -0.081,0.063 -0.144,0.129 -0.13,0.063 -0.095,0.098 -0.161,0.129 -0.063,0.032 -0.035,0.032 -0.386,0.257 -0.032,0.032 -0.031,0.033 -0.193,0.128 -0.081,0.065 -0.144,0.063 -0.13,0.097 -0.095,0.064 -0.196,0.129 -0.046,0.031 -0.242,0.13 v 0 l -0.225,0.16 -0.066,0.032 -0.176,0.097 -0.112,0.064 -0.13,0.097 -0.161,0.096 -0.063,0.033 -0.225,0.129 h -0.031 l -0.242,0.129 -0.018,0.031 -0.225,0.129 -0.063,0.033 -0.193,0.096 -0.116,0.064 -0.126,0.064 -0.179,0.064 -0.063,0.032 -0.225,0.13 h -0.031 l -0.242,0.127 h -0.049 l -0.21,0.129 -0.081,0.033 -0.176,0.064 -0.144,0.064 -0.112,0.064 -0.193,0.063 -0.066,0.032 -0.242,0.097 v 0 l -0.274,0.129 h -0.045 l -0.211,0.097 -0.112,0.032 -0.161,0.064 -0.162,0.063 -0.095,0.033 -0.225,0.063 -0.035,0.032 -0.273,0.098 h -0.014 l -0.26,0.064 -0.063,0.031 -0.193,0.064 -0.13,0.032 -0.144,0.065 -0.176,0.031 -0.098,0.032 -0.242,0.065 -0.014,0.031 -0.291,0.064 h -0.032 l -0.225,0.064 -0.098,0.032 -0.193,0.032 -0.144,0.064 -0.13,0.031 -0.207,0.033 -0.067,0.032 -0.273,0.032 -0.014,0.031 -0.274,0.033 -0.049,0.032 -0.225,0.031 -0.112,0.032 -0.179,0.033 -0.161,0.031 h -0.126 l -0.228,0.064 h -0.046 l -0.291,0.032 v 0 l -0.274,0.065 v 88.174 l 0.274,0.032 v 0 l 0.291,0.065 h 0.046 l 0.228,0.031 0.126,0.033 0.161,0.031 0.179,0.032 h 0.112 l 0.225,0.065 h 0.049 l 0.274,0.063 h 0.014 l 0.273,0.063 h 0.067 l 0.207,0.065 0.13,0.032 0.144,0.031 0.193,0.033 0.098,0.032 0.225,0.063 h 0.032 l 0.291,0.098 h 0.014 l 0.242,0.063 0.098,0.032 0.176,0.064 0.144,0.032 0.13,0.032 0.193,0.064 0.063,0.032 0.26,0.097 h 0.014 l 0.273,0.097 h 0.035 l 0.225,0.063 0.095,0.065 0.162,0.032 0.161,0.064 0.112,0.064 0.211,0.064 0.045,0.031 0.274,0.097 v 0 l 0.242,0.098 0.066,0.031 0.193,0.097 0.112,0.032 0.144,0.064 0.176,0.097 0.081,0.032 0.21,0.097 0.049,0.032 0.242,0.097 h 0.031 l 0.225,0.129 0.063,0.031 0.179,0.098 0.126,0.064 0.116,0.063 0.193,0.097 0.063,0.032 0.225,0.129 h 0.018 l 0.242,0.129 0.031,0.032 0.225,0.096 0.063,0.065 0.161,0.097 0.13,0.064 0.112,0.064 0.176,0.096 0.066,0.032 0.225,0.161 v 0 l 0.242,0.129 0.046,0.031 0.196,0.13 0.095,0.063 0.13,0.098 0.144,0.097 0.081,0.063 0.193,0.129 0.031,0.032 h 0.032 l 0.386,0.29 0.035,0.031 0.063,0.033 0.112,0.064 32.579,-32.579 c -2.495,-3.638 -3.976,-8.08 -3.976,-12.845 0,-6.245 2.544,-11.943 6.665,-16.031 4.088,-4.124 9.787,-6.668 16.062,-6.668 z m 157.324,10.141 c -2.702,-2.672 -6.422,-4.346 -10.512,-4.346 -3.523,0 -6.741,1.224 -9.285,3.251 l -0.049,0.064 c -0.127,0.129 -0.274,0.258 -0.436,0.354 l -0.705,0.677 c -2.689,2.671 -4.349,6.406 -4.349,10.494 0,4.089 1.659,7.791 4.331,10.463 2.688,2.704 6.404,4.347 10.492,4.347 4.09,0 7.81,-1.643 10.48,-4.314 l 0.709,-0.74 0.018,-0.033 0.014,-0.031 0.305,-0.354 0.018,-0.033 c 2.061,-2.575 3.285,-5.794 3.285,-9.304 0,-4.089 -1.66,-7.825 -4.316,-10.495 z m 3.832,28.104 c -3.927,3.186 -8.918,5.118 -14.344,5.118 -6.26,0 -11.942,-2.544 -16.045,-6.663 -4.138,-4.121 -6.696,-9.819 -6.696,-16.065 0,-5.439 1.931,-10.431 5.117,-14.357 l -36.843,-36.86 c -3.686,2.801 -8.083,4.732 -12.876,5.408 v 88.207 c 6.082,0.869 11.54,3.734 15.691,7.855 l 0.193,0.193 0.035,0.064 0.161,0.16 0.063,0.064 0.13,0.129 0.112,0.129 0.063,0.064 0.162,0.161 0.014,0.032 0.193,0.225 v 0 l 0.196,0.193 0.031,0.064 0.127,0.16 0.098,0.098 0.095,0.097 0.116,0.161 0.045,0.063 0.162,0.194 h 0.018 l 0.175,0.225 0.018,0.032 0.145,0.192 0.063,0.065 0.116,0.161 0.077,0.096 0.081,0.129 0.13,0.161 0.031,0.032 0.049,0.064 0.257,0.354 0.018,0.033 0.031,0.064 0.13,0.161 0.049,0.097 0.095,0.16 0.099,0.129 0.063,0.097 0.13,0.192 0.031,0.033 0.13,0.225 v 0 l 0.158,0.258 0.035,0.032 0.095,0.193 0.063,0.097 0.081,0.129 0.099,0.16 0.049,0.097 0.112,0.194 0.014,0.031 0.13,0.258 0.018,0.032 0.112,0.225 0.046,0.065 0.099,0.16 0.063,0.129 0.05,0.129 0.098,0.16 0.032,0.098 0.126,0.225 v 0.033 l 0.115,0.225 0.015,0.032 0.112,0.226 0.031,0.096 0.081,0.162 0.066,0.16 0.049,0.097 0.078,0.193 0.034,0.065 0.095,0.256 v 0 l 0.112,0.258 0.018,0.064 0.081,0.193 0.049,0.129 0.046,0.129 0.066,0.193 0.046,0.096 0.066,0.193 0.015,0.064 0.098,0.258 v 0 l 0.081,0.258 0.031,0.097 0.063,0.192 0.031,0.129 0.05,0.129 0.049,0.193 0.031,0.097 0.063,0.226 0.018,0.031 0.081,0.291 v 0 l 0.063,0.257 0.035,0.097 0.032,0.193 0.031,0.129 0.049,0.129 0.046,0.225 0.018,0.064 0.049,0.258 v 0 l 0.063,0.29 0.018,0.063 0.046,0.226 0.018,0.097 0.031,0.193 0.031,0.161 0.018,0.097 0.032,0.226 0.018,0.063 0.045,0.29 v 0 l 0.035,0.29 h 88.205 l 0.035,-0.29 v 0 l 0.045,-0.29 0.018,-0.063 0.031,-0.226 0.018,-0.097 0.032,-0.161 0.032,-0.193 0.018,-0.097 0.045,-0.226 0.018,-0.063 0.063,-0.29 v 0 l 0.067,-0.258 v -0.064 l 0.063,-0.225 0.031,-0.129 0.031,-0.129 0.035,-0.193 0.031,-0.097 0.064,-0.257 v 0 l 0.098,-0.291 v -0.031 l 0.063,-0.226 0.032,-0.097 0.05,-0.193 0.049,-0.129 0.031,-0.129 0.063,-0.192 0.032,-0.097 0.081,-0.258 v 0 l 0.098,-0.258 0.014,-0.064 0.082,-0.193 0.031,-0.096 0.066,-0.193 0.049,-0.129 0.046,-0.129 0.081,-0.193 0.031,-0.064 0.098,-0.258 v 0 l 0.096,-0.256 0.035,-0.065 0.094,-0.193 0.032,-0.097 0.066,-0.16 0.081,-0.162 0.045,-0.096 0.099,-0.226 0.018,-0.032 0.112,-0.225 0.014,-0.033 0.113,-0.225 0.031,-0.098 0.098,-0.16 0.063,-0.129 0.067,-0.129 0.08,-0.16 0.046,-0.065 0.112,-0.225 0.018,-0.032 0.13,-0.258 0.014,-0.031 0.112,-0.194 0.066,-0.097 0.081,-0.16 0.081,-0.129 0.063,-0.097 0.099,-0.193 0.032,-0.032 0.16,-0.258 v 0 l 0.145,-0.225 0.014,-0.033 0.131,-0.192 0.063,-0.097 0.098,-0.129 0.1,-0.16 0.063,-0.097 0.112,-0.161 0.032,-0.064 0.018,-0.033 0.273,-0.354 0.031,-0.064 0.031,-0.032 0.131,-0.161 0.08,-0.129 0.08,-0.096 0.081,-0.098 z M 181.813,54.572 c 1.499,0 3.061,-0.966 3.559,-2.222 1.302,-2.64 -0.691,-5.698 -3.559,-5.698 h -7.917 c -1.481,0 -3.06,0.998 -3.541,2.221 -1.319,2.641 0.674,5.699 3.541,5.699 z m 31.645,0 c 1.481,0 3.06,-0.966 3.541,-2.222 1.319,-2.64 -0.674,-5.698 -3.541,-5.698 h -7.917 c -1.481,0 -3.061,0.998 -3.541,2.221 -1.32,2.641 0.674,5.699 3.541,5.699 z m 31.631,0 c 1.495,0 3.057,-0.966 3.555,-2.222 1.32,-2.64 -0.691,-5.698 -3.555,-5.698 h -7.903 c -1.499,0 -3.06,0.998 -3.559,2.221 -1.319,2.641 0.691,5.699 3.559,5.699 z m 31.645,0 c 1.494,0 3.057,-0.966 3.555,-2.222 1.319,-2.64 -0.691,-5.698 -3.555,-5.698 h -7.904 c -1.512,0 -3.06,0.998 -3.572,2.221 -1.306,2.641 0.705,5.699 3.572,5.699 z m 31.627,0 c 1.514,0 3.061,-0.966 3.573,-2.222 1.319,-2.64 -0.706,-5.698 -3.573,-5.698 h -7.886 c -1.513,0 -3.061,0.998 -3.572,2.221 -1.323,2.641 0.705,5.699 3.572,5.699 z m 31.646,0 c 1.499,0 3.061,-0.966 3.559,-2.222 1.319,-2.64 -0.691,-5.698 -3.559,-5.698 h -7.903 c -1.495,0 -3.057,0.998 -3.555,2.221 -1.323,2.641 0.691,5.699 3.555,5.699 z m 31.645,0 c 1.498,0 3.061,-0.966 3.559,-2.222 1.319,-2.64 -0.691,-5.698 -3.559,-5.698 h -7.918 c -1.48,0 -3.043,0.998 -3.541,2.221 -1.322,2.641 0.674,5.699 3.541,5.699 z m 31.645,0 c 1.481,0 3.061,-0.966 3.541,-2.222 1.32,-2.64 -0.674,-5.698 -3.541,-5.698 h -7.917 c -1.481,0 -3.061,0.998 -3.541,2.221 -1.323,2.641 0.674,5.699 3.541,5.699 z m 31.645,0 c 1.481,0 3.043,-0.966 3.541,-2.222 1.319,-2.64 -0.677,-5.698 -3.541,-5.698 h -7.917 c -1.499,0 -3.061,0.998 -3.559,2.221 -1.306,2.641 0.691,5.699 3.559,5.699 z m -0.063,23.79 c 0,1.513 0.966,3.059 2.222,3.573 2.64,1.32 5.682,-0.708 5.682,-3.573 v -7.887 c 0,-1.514 -0.982,-3.059 -2.221,-3.573 -2.64,-1.32 -5.683,0.707 -5.683,3.573 z m 0,31.646 c 0,1.514 0.966,3.059 2.222,3.573 2.64,1.287 5.682,-0.708 5.682,-3.573 v -7.92 c 0,-1.48 -0.982,-3.059 -2.221,-3.541 -2.64,-1.32 -5.683,0.676 -5.683,3.541 z m 0,31.644 c 0,1.481 0.966,3.059 2.222,3.541 2.64,1.32 5.682,-0.676 5.682,-3.541 v -7.919 c 0,-1.481 -0.982,-3.059 -2.221,-3.541 -2.64,-1.32 -5.683,0.675 -5.683,3.541 z m 0,31.646 c 0,1.481 0.966,3.059 2.222,3.541 2.64,1.319 5.682,-0.676 5.682,-3.541 v -7.919 c 0,-1.481 -0.982,-3.059 -2.221,-3.541 -2.64,-1.32 -5.683,0.676 -5.683,3.541 z m 0,31.612 c 0,1.514 0.966,3.059 2.222,3.574 2.64,1.319 5.682,-0.709 5.682,-3.574 v -7.887 c 0,-1.514 -0.982,-3.059 -2.221,-3.573 -2.64,-1.319 -5.683,0.708 -5.683,3.573 z m 0,31.646 c 0,1.513 0.966,3.059 2.222,3.573 2.64,1.32 5.682,-0.708 5.682,-3.573 v -7.887 c 0,-1.514 -0.982,-3.059 -2.221,-3.573 -2.64,-1.32 -5.683,0.707 -5.683,3.573 z m 0,31.645 c 0,1.514 0.966,3.059 2.222,3.573 2.64,1.319 5.682,-0.708 5.682,-3.573 v -7.887 c 0,-1.514 -0.982,-3.059 -2.221,-3.574 -2.64,-1.319 -5.683,0.709 -5.683,3.574 z M 142.264,46.652 c -1.495,0 -3.057,0.998 -3.555,2.221 -1.319,2.641 0.691,5.699 3.555,5.699 h 7.903 c 1.499,0 3.061,-0.966 3.559,-2.222 1.32,-2.64 -0.691,-5.698 -3.559,-5.698 z M 42.033,446.676 c -2.187,0 -3.958,-1.771 -3.958,-3.96 0,-2.188 1.772,-3.96 3.958,-3.96 h 306.65 c 2.173,0 3.962,1.771 3.962,3.96 0,2.189 -1.789,3.96 -3.962,3.96 z m 179.571,18.671 c -2.19,0 -3.959,-1.803 -3.959,-3.959 0,-2.189 1.769,-3.96 3.959,-3.96 h 212.195 c 2.176,0 3.962,1.771 3.962,3.96 0,2.156 -1.786,3.959 -3.962,3.959 z m 233.912,0 c -2.177,0 -3.963,-1.803 -3.963,-3.959 0,-2.189 1.786,-3.96 3.963,-3.96 h 26.524 c 2.189,0 3.959,1.771 3.959,3.96 0,2.156 -1.77,3.959 -3.959,3.959 z M 29.963,464.768 c -2.189,0 -3.962,-1.771 -3.962,-3.959 0,-2.189 1.772,-3.96 3.962,-3.96 H 130.5 c 2.186,0 3.958,1.771 3.958,3.96 0,2.188 -1.772,3.959 -3.958,3.959 z M 318.742,291.701 c 6.266,0 11.961,2.543 16.05,6.633 4.138,4.152 6.696,9.818 6.696,16.095 0,4.218 -1.176,8.21 -3.205,11.589 l 35.913,35.928 0.112,-0.064 0.049,-0.033 0.063,-0.031 0.368,-0.29 h 0.035 l 0.032,-0.032 0.192,-0.129 0.081,-0.063 0.161,-0.097 0.127,-0.098 0.098,-0.063 0.176,-0.13 0.049,-0.031 0.225,-0.129 h 0.018 l 0.225,-0.161 0.049,-0.032 0.193,-0.096 0.096,-0.064 0.129,-0.064 0.162,-0.097 0.094,-0.065 0.211,-0.096 0.018,-0.032 0.256,-0.129 h 0.018 l 0.225,-0.129 0.081,-0.032 0.161,-0.097 0.127,-0.063 0.13,-0.064 0.179,-0.098 0.063,-0.031 0.242,-0.129 h 0.014 l 0.242,-0.097 0.032,-0.032 0.225,-0.097 0.098,-0.032 0.162,-0.097 0.144,-0.064 0.112,-0.032 0.193,-0.097 0.066,-0.031 0.256,-0.098 v 0 l 0.256,-0.097 0.05,-0.031 0.21,-0.064 0.113,-0.064 0.144,-0.064 0.179,-0.032 0.095,-0.065 0.225,-0.063 h 0.05 l 0.256,-0.097 h 0.018 l 0.256,-0.097 0.066,-0.032 0.193,-0.064 0.127,-0.032 0.146,-0.032 0.193,-0.064 0.08,-0.032 0.242,-0.063 h 0.032 l 0.273,-0.098 h 0.015 l 0.26,-0.063 0.08,-0.032 0.193,-0.033 0.144,-0.031 0.13,-0.032 0.207,-0.065 h 0.081 l 0.26,-0.063 h 0.014 l 0.274,-0.063 h 0.049 l 0.242,-0.065 h 0.095 l 0.179,-0.032 0.176,-0.031 0.098,-0.033 0.238,-0.031 h 0.05 l 0.291,-0.065 v 0 l 0.288,-0.032 v -88.174 l -0.288,-0.065 v 0 l -0.291,-0.032 h -0.05 l -0.238,-0.064 h -0.098 l -0.176,-0.031 -0.179,-0.033 -0.095,-0.032 -0.242,-0.031 -0.049,-0.032 -0.274,-0.033 -0.014,-0.031 -0.26,-0.032 -0.081,-0.032 -0.207,-0.033 -0.13,-0.031 -0.144,-0.064 -0.193,-0.032 -0.08,-0.032 -0.26,-0.064 h -0.015 l -0.273,-0.064 -0.032,-0.031 -0.242,-0.065 -0.08,-0.032 -0.193,-0.031 -0.146,-0.065 -0.127,-0.032 -0.193,-0.064 -0.066,-0.031 -0.256,-0.064 h -0.018 l -0.256,-0.098 -0.05,-0.032 -0.225,-0.063 -0.095,-0.033 -0.179,-0.063 -0.144,-0.064 -0.113,-0.032 -0.21,-0.097 h -0.05 l -0.256,-0.129 v 0 l -0.256,-0.097 -0.066,-0.032 -0.193,-0.063 -0.112,-0.064 -0.144,-0.064 -0.162,-0.064 -0.098,-0.033 -0.225,-0.129 h -0.032 l -0.242,-0.127 h -0.014 l -0.242,-0.13 -0.063,-0.032 -0.179,-0.064 -0.13,-0.064 -0.127,-0.064 -0.161,-0.096 -0.081,-0.033 -0.225,-0.129 -0.018,-0.031 -0.256,-0.129 h -0.018 l -0.211,-0.129 -0.094,-0.033 -0.162,-0.096 -0.129,-0.097 -0.096,-0.064 -0.193,-0.097 -0.049,-0.032 -0.225,-0.16 h -0.018 l -0.225,-0.13 -0.049,-0.031 -0.176,-0.129 -0.098,-0.064 -0.127,-0.097 -0.161,-0.063 -0.081,-0.065 -0.192,-0.128 -0.032,-0.033 -0.035,-0.032 -0.368,-0.257 -0.063,-0.032 -0.049,-0.032 -0.161,-0.129 -0.112,-0.098 -0.112,-0.063 -0.144,-0.129 -0.067,-0.063 -0.192,-0.129 -0.032,-0.033 -0.21,-0.16 -0.015,-0.033 -0.192,-0.16 -0.066,-0.032 -0.158,-0.13 -0.099,-0.096 -0.112,-0.097 -0.145,-0.129 -0.066,-0.032 -0.193,-0.16 -0.014,-0.032 -0.211,-0.194 h -0.031 l -0.161,-0.16 -0.081,-0.064 -0.111,-0.129 -0.131,-0.096 -0.08,-0.098 -0.145,-0.16 -0.049,-0.033 -0.207,-0.193 c -4.155,-4.152 -6.987,-9.625 -7.857,-15.741 h -88.19 c -0.66,4.667 -2.478,8.949 -5.135,12.556 l 37.313,37.311 c 3.41,-2.058 7.368,-3.217 11.6,-3.217 z"
         style="clip-rule:evenodd;fill-rule:evenodd"
         id="path2" /></g></g><g
     id="Layer_1"
     transform="translate(-26.001,-46.652)" /></svg>
