<?xml version="1.0" encoding="UTF-8" standalone="no"?>
<svg
   xmlns:dc="http://purl.org/dc/elements/1.1/"
   xmlns:cc="http://creativecommons.org/ns#"
   xmlns:rdf="http://www.w3.org/1999/02/22-rdf-syntax-ns#"
   xmlns:svg="http://www.w3.org/2000/svg"
   xmlns="http://www.w3.org/2000/svg"
   fill="none"
   height="24"
   viewBox="0 0 24 24"
   width="24"
   version="1.1"
   id="svg4">
  <metadata
     id="metadata10">
    <rdf:RDF>
      <cc:Work
         rdf:about="">
        <dc:format>image/svg+xml</dc:format>
        <dc:type
           rdf:resource="http://purl.org/dc/dcmitype/StillImage" />
        <dc:title></dc:title>
      </cc:Work>
    </rdf:RDF>
  </metadata>
  <defs
     id="defs8" />
  <path
     style="color:#000000;font-style:normal;font-variant:normal;font-weight:normal;font-stretch:normal;font-size:medium;line-height:normal;font-family:sans-serif;font-variant-ligatures:normal;font-variant-position:normal;font-variant-caps:normal;font-variant-numeric:normal;font-variant-alternates:normal;font-variant-east-asian:normal;font-feature-settings:normal;font-variation-settings:normal;text-indent:0;text-align:start;text-decoration:none;text-decoration-line:none;text-decoration-style:solid;text-decoration-color:#000000;letter-spacing:normal;word-spacing:normal;text-transform:none;writing-mode:lr-tb;direction:ltr;text-orientation:mixed;dominant-baseline:auto;baseline-shift:baseline;text-anchor:start;white-space:normal;shape-padding:0;shape-margin:0;inline-size:0;clip-rule:nonzero;display:inline;overflow:visible;visibility:visible;isolation:auto;mix-blend-mode:normal;color-interpolation:sRGB;color-interpolation-filters:linearRGB;solid-color:#000000;solid-opacity:1;vector-effect:none;fill:#000000;fill-opacity:1;fill-rule:nonzero;stroke:none;stroke-width:2;stroke-linecap:round;stroke-linejoin:round;stroke-miterlimit:4;stroke-dasharray:none;stroke-dashoffset:0;stroke-opacity:1;color-rendering:auto;image-rendering:auto;shape-rendering:auto;text-rendering:auto;enable-background:accumulate;stop-color:#000000;stop-opacity:1;opacity:1"
     d="M 5.5800781 4.6367188 A 1 1 0 0 0 4.9296875 4.9296875 C 1.0328184 8.8265566 1.0328152 15.173462 4.9296875 19.070312 A 1 1 0 0 0 6.34375 19.070312 A 1 1 0 0 0 6.34375 17.65625 C 3.2111823 14.5237 3.2111791 9.4763209 6.34375 6.34375 A 1 1 0 0 0 6.34375 4.9296875 A 1 1 0 0 0 5.5800781 4.6367188 z M 18.308594 4.6367188 A 1 1 0 0 0 17.65625 4.9296875 A 1 1 0 0 0 17.65625 6.34375 C 20.788802 9.4763198 20.788799 14.523701 17.65625 17.65625 A 1 1 0 0 0 17.65625 19.070312 A 1 1 0 0 0 19.070312 19.070312 C 22.967164 15.173461 22.96716 8.8265577 19.070312 4.9296875 A 1 1 0 0 0 18.308594 4.6367188 z M 8.4921875 7.4648438 A 1 1 0 0 0 7.7578125 7.7578125 C 5.4230145 10.092563 5.4230174 13.907428 7.7578125 16.242188 A 1 1 0 0 0 9.171875 16.242188 A 1 1 0 0 0 9.171875 14.828125 C 7.6014101 13.257684 7.601413 10.742305 9.171875 9.171875 A 1 1 0 0 0 9.171875 7.7578125 A 1 1 0 0 0 8.4921875 7.4648438 z M 15.564453 7.4648438 A 1 1 0 0 0 14.828125 7.7578125 A 1 1 0 0 0 14.828125 9.171875 C 16.39865 10.742312 16.398653 13.257677 14.828125 14.828125 A 1 1 0 0 0 14.828125 16.242188 A 1 1 0 0 0 16.242188 16.242188 C 18.577059 13.907435 18.577062 10.092556 16.242188 7.7578125 A 1 1 0 0 0 15.564453 7.4648438 z M 12 10 C 10.907173 10 10 10.907295 10 12 C 10 13.092707 10.907293 14 12 14 C 13.092707 14 14 13.092707 14 12 C 14 10.907295 13.092827 10 12 10 z "
     id="path837" />
</svg>
