<?xml version="1.0" encoding="UTF-8" standalone="no"?>
<svg
   xmlns:dc="http://purl.org/dc/elements/1.1/"
   xmlns:cc="http://creativecommons.org/ns#"
   xmlns:rdf="http://www.w3.org/1999/02/22-rdf-syntax-ns#"
   xmlns:svg="http://www.w3.org/2000/svg"
   xmlns="http://www.w3.org/2000/svg"
   xmlns:sodipodi="http://sodipodi.sourceforge.net/DTD/sodipodi-0.dtd"
   xmlns:inkscape="http://www.inkscape.org/namespaces/inkscape"
   viewBox="0 0 30.07436 44.415215"
   version="1.1"
   id="svg11"
   sodipodi:docname="ReturnArrow1.svg"
   width="30.07436"
   height="44.415215"
   inkscape:version="0.92.4 (5da689c313, 2019-01-14)">
  <metadata
     id="metadata17">
    <rdf:RDF>
      <cc:Work
         rdf:about="">
        <dc:format>image/svg+xml</dc:format>
        <dc:type
           rdf:resource="http://purl.org/dc/dcmitype/StillImage" />
      </cc:Work>
    </rdf:RDF>
  </metadata>
  <defs
     id="defs15" />
  <sodipodi:namedview
     pagecolor="#ffffff"
     bordercolor="#666666"
     borderopacity="1"
     objecttolerance="10"
     gridtolerance="10"
     guidetolerance="10"
     inkscape:pageopacity="0"
     inkscape:pageshadow="2"
     inkscape:window-width="1920"
     inkscape:window-height="1017"
     id="namedview13"
     showgrid="false"
     inkscape:zoom="10.429825"
     inkscape:cx="6.3329487"
     inkscape:cy="24.377134"
     inkscape:window-x="1912"
     inkscape:window-y="1072"
     inkscape:window-maximized="1"
     inkscape:current-layer="svg11" />
  <title
     id="title2" />
  <g
     id="g856"
     transform="translate(-0.97833145,13.415134)">
    <g
       id="Layer_2"
       data-name="Layer 2">
      <path
         id="path4"
         d="M 31,18 A 11.73,11.73 0 0 0 19.18,7.59 H 4 L 7.25,3 A 1,1 0 0 0 7,1.59 1,1 0 0 0 5.61,1.83 L 1.15,8.08 a 0.87,0.87 0 0 0 0,1 l 4.47,6.26 A 1,1 0 0 0 7.25,14.2 L 4,9.59 H 19.18 A 9.73,9.73 0 0 1 29,18.44 9.51,9.51 0 0 1 19.52,28.59 H 2 a 1,1 0 1 0 0,2 H 19.5 A 11.51,11.51 0 0 0 31,18 Z"
         inkscape:connector-curvature="0" />
      <path
         id="path6"
         d="M 5.6,15.77 1.13,9.51 a 0.9,0.9 0 0 1 0,-1 L 5.6,2.23 A 1,1 0 0 1 7,2 v 0 a 1,1 0 0 1 0.23,1.4 l -4,5.6 4,5.6 A 1,1 0 0 1 7,16 v 0 A 1,1 0 0 1 5.6,15.77 Z"
         inkscape:connector-curvature="0" />
      <path
         id="path8"
         d="M 19.16,8 H 2 A 1,1 0 0 0 1,9 v 0 a 1,1 0 0 0 1,1 H 19.16 A 9.73,9.73 0 0 1 29,18.85 9.51,9.51 0 0 1 19.5,29 H 2 a 1,1 0 0 0 -1,1 v 0 a 1,1 0 0 0 1,1 H 19.5 A 11.51,11.51 0 0 0 31,18.39 11.72,11.72 0 0 0 19.16,8 Z"
         inkscape:connector-curvature="0" />
    </g>
    <g
       id="Layer_2-0"
       data-name="Layer 2"
       transform="matrix(1,0,0,-1,-2.8700876e-8,17.584945)">
      <path
         id="path4-2"
         d="M 31,18 A 11.73,11.73 0 0 0 19.18,7.59 H 4 L 7.25,3 A 1,1 0 0 0 7,1.59 1,1 0 0 0 5.61,1.83 L 1.15,8.08 a 0.87,0.87 0 0 0 0,1 l 4.47,6.26 A 1,1 0 0 0 7.25,14.2 L 4,9.59 H 19.18 A 9.73,9.73 0 0 1 29,18.44 9.51,9.51 0 0 1 19.52,28.59 H 2 a 1,1 0 1 0 0,2 H 19.5 A 11.51,11.51 0 0 0 31,18 Z"
         inkscape:connector-curvature="0" />
      <path
         id="path6-7"
         d="M 5.6,15.77 1.13,9.51 a 0.9,0.9 0 0 1 0,-1 L 5.6,2.23 A 1,1 0 0 1 7,2 v 0 a 1,1 0 0 1 0.23,1.4 l -4,5.6 4,5.6 A 1,1 0 0 1 7,16 v 0 A 1,1 0 0 1 5.6,15.77 Z"
         inkscape:connector-curvature="0" />
      <path
         id="path8-3"
         d="M 19.16,8 H 2 A 1,1 0 0 0 1,9 v 0 a 1,1 0 0 0 1,1 H 19.16 A 9.73,9.73 0 0 1 29,18.85 9.51,9.51 0 0 1 19.5,29 H 2 a 1,1 0 0 0 -1,1 v 0 a 1,1 0 0 0 1,1 H 19.5 A 11.51,11.51 0 0 0 31,18.39 11.72,11.72 0 0 0 19.16,8 Z"
         inkscape:connector-curvature="0" />
    </g>
  </g>
</svg>
