<?xml version="1.0" encoding="UTF-8" standalone="no"?>
<!-- Created with Inkscape (http://www.inkscape.org/) -->

<svg
   xmlns:dc="http://purl.org/dc/elements/1.1/"
   xmlns:cc="http://creativecommons.org/ns#"
   xmlns:rdf="http://www.w3.org/1999/02/22-rdf-syntax-ns#"
   xmlns:svg="http://www.w3.org/2000/svg"
   xmlns="http://www.w3.org/2000/svg"
   xmlns:sodipodi="http://sodipodi.sourceforge.net/DTD/sodipodi-0.dtd"
   xmlns:inkscape="http://www.inkscape.org/namespaces/inkscape"
   width="87.629997mm"
   height="36.260262mm"
   viewBox="0 0 87.629997 36.260262"
   version="1.1"
   id="svg941"
   inkscape:version="0.92.4 (5da689c313, 2019-01-14)"
   sodipodi:docname="Roadrunner.svg">
  <defs
     id="defs935" />
  <sodipodi:namedview
     id="base"
     pagecolor="#ffffff"
     bordercolor="#666666"
     borderopacity="1.0"
     inkscape:pageopacity="0.0"
     inkscape:pageshadow="2"
     inkscape:zoom="0.35"
     inkscape:cx="479.88571"
     inkscape:cy="-40.048085"
     inkscape:document-units="mm"
     inkscape:current-layer="layer1"
     showgrid="false"
     inkscape:window-width="1920"
     inkscape:window-height="1017"
     inkscape:window-x="1912"
     inkscape:window-y="1072"
     inkscape:window-maximized="1" />
  <metadata
     id="metadata938">
    <rdf:RDF>
      <cc:Work
         rdf:about="">
        <dc:format>image/svg+xml</dc:format>
        <dc:type
           rdf:resource="http://purl.org/dc/dcmitype/StillImage" />
        <dc:title></dc:title>
      </cc:Work>
    </rdf:RDF>
  </metadata>
  <g
     inkscape:label="Layer 1"
     inkscape:groupmode="layer"
     id="layer1"
     transform="translate(163.25548,-101.97701)">
    <g
       id="g56"
       transform="matrix(0.35277777,0,0,-0.35277777,-75.625477,126.48625)">
      <path
         d="m 0,0 c 0,0 -171.374,34.098 -183.478,38.526 -12.104,4.428 -16.827,8.561 -20.862,10.136 -4.034,1.574 -8.856,0.541 -13.088,0.541 -4.231,0 -5.461,2.903 -2.657,4.477 2.805,1.575 16.434,-1.328 16.434,-1.328 l -2.263,3.936 h -3.1 l 4.33,1.083 0.787,3.641 -1.476,1.968 -7.134,-2.51 7.085,3.199 -0.886,2.017 -7.331,-2.608 7.676,3.494 -0.985,2.903 c 0,0 -8.413,-2.756 -13.235,-7.135 -4.822,-4.379 -8.069,-9.152 -8.069,-9.152 0,0 -12.203,-0.196 -15.549,-1.377 -3.079,-1.087 -4.407,-2.839 -4.599,-3.112 0.157,0.17 1.236,0.829 8.339,-0.037 8.069,-0.984 14.958,-2.165 14.958,-2.165 0,0 0.393,-2.559 6.691,-4.822 6.298,-2.263 8.365,-1.476 14.072,-6.298 5.708,-4.822 19.485,-20.469 24.7,-25.979 5.216,-5.511 9.447,-8.489 9.447,-8.489 l -6.593,4.061 c 0,0 0.59,-16.336 0,-17.517 -0.591,-1.181 -2.854,-3.05 -3.838,-3.542 -0.984,-0.492 -19.288,0.787 -23.027,0.885 -3.739,0.099 -8.463,-1.968 -10.726,-2.263 -2.264,-0.295 -4.625,0.984 -6.397,0.886 -1.771,-0.099 -3.05,-0.93 -3.05,-0.93 0,0 2.165,0.241 3.149,-0.645 0.984,-0.886 1.378,-2.263 3.346,-2.362 1.968,-0.098 3.641,0.886 7.478,1.181 3.838,0.295 5.118,0.295 5.118,0.295 0,0 -1.28,-3.345 1.377,-5.51 2.657,-2.165 3.444,-2.756 5.216,-2.46 1.771,0.295 2.755,-0.788 2.755,-0.788 0,0 0.295,1.575 -1.181,2.46 -1.476,0.886 -2.854,-0.492 -4.33,1.673 -1.476,2.165 -0.787,4.822 -0.787,4.822 0,0 19.386,-2.066 24.405,-1.673 5.019,0.394 5.904,4.133 7.085,7.774 1.181,3.641 4.625,10.235 4.625,10.235 l -2.46,1.574 c 0,0 8.857,-2.952 15.843,-3.542 6.987,-0.591 19.583,4.526 23.716,5.904 4.133,1.378 6.397,1.032 8.365,-0.518 1.968,-1.549 6.691,-18.573 8.561,-21.427 1.87,-2.853 11.267,-6.691 12.35,-8.069 1.082,-1.378 1.968,-3.149 3.149,-3.887 1.181,-0.738 1.919,-0.836 1.919,-0.836 0,0 -2.756,2.312 -2.805,3.001 -0.049,0.689 1.083,0.64 1.083,1.919 0,1.279 -5.117,4.428 -7.282,5.412 -2.165,0.984 -3.592,2.214 -3.592,2.214 0,0 3.149,1.575 3.887,3.248 0.738,1.673 -0.886,4.182 -1.722,5.609 -0.837,1.427 -0.738,2.608 -0.738,2.608 0,0 -0.837,-1.28 -0.788,-1.919 0.05,-0.64 0.443,-0.394 0.542,-1.624 0.098,-1.23 0.738,-1.968 -0.148,-3.247 -0.886,-1.28 -2.706,-1.624 -2.706,-1.624 l -8.168,22.289 c 0,0 7.676,-0.689 8.955,-0.295 1.279,0.393 1.476,3.542 1.476,3.542 l -19.484,6.987 27.554,-7.577 31.637,-9.152 1.329,1.919 -6.79,2.509 50.039,-9.742 8.709,2.51 -26.57,7.085 35.131,-6.643 z"
         style="fill:#000000;fill-opacity:1;fill-rule:nonzero;stroke:none"
         id="path58"
         inkscape:connector-curvature="0" />
    </g>
  </g>
</svg>
