<?xml version="1.0" encoding="UTF-8" standalone="no"?>
<svg
   xmlns:dc="http://purl.org/dc/elements/1.1/"
   xmlns:cc="http://creativecommons.org/ns#"
   xmlns:rdf="http://www.w3.org/1999/02/22-rdf-syntax-ns#"
   xmlns:svg="http://www.w3.org/2000/svg"
   xmlns="http://www.w3.org/2000/svg"
   xmlns:sodipodi="http://sodipodi.sourceforge.net/DTD/sodipodi-0.dtd"
   xmlns:inkscape="http://www.inkscape.org/namespaces/inkscape"
   height="66.084953"
   viewBox="0 0 58.926762 66.084954"
   width="58.926762"
   version="1.1"
   id="svg6"
   sodipodi:docname="TrakB.svg"
   inkscape:version="0.92.4 (5da689c313, 2019-01-14)">
  <metadata
     id="metadata12">
    <rdf:RDF>
      <cc:Work
         rdf:about="">
        <dc:format>image/svg+xml</dc:format>
        <dc:type
           rdf:resource="http://purl.org/dc/dcmitype/StillImage" />
        <dc:title></dc:title>
      </cc:Work>
    </rdf:RDF>
  </metadata>
  <defs
     id="defs10" />
  <sodipodi:namedview
     pagecolor="#ffffff"
     bordercolor="#666666"
     borderopacity="1"
     objecttolerance="10"
     gridtolerance="10"
     guidetolerance="10"
     inkscape:pageopacity="0"
     inkscape:pageshadow="2"
     inkscape:window-width="1259"
     inkscape:window-height="1008"
     id="namedview8"
     showgrid="false"
     inkscape:zoom="4.9166667"
     inkscape:cx="28.158608"
     inkscape:cy="23.999997"
     inkscape:window-x="1913"
     inkscape:window-y="1080"
     inkscape:window-maximized="0"
     inkscape:current-layer="svg6" />
  <path
     d="m 0,18.084954 h 48 v 48 H 0 Z"
     id="path2"
     inkscape:connector-curvature="0"
     style="fill:none" />
  <path
     d="m 38.14,27.944954 -2.82,2.82 c 2.88,2.9 4.68,6.9 4.68,11.32 0,8.84 -7.16,16 -16,16 -8.84,0 -16,-7.16 -16,-16 0,-8.16 6.1,-14.88 14,-15.86 v 4.04 c -5.68,0.96 -10,5.88 -10,11.82 0,6.62 5.38,12 12,12 6.62,0 12,-5.38 12,-12 0,-3.32 -1.34,-6.32 -3.52,-8.48 l -2.82,2.82 c 1.44,1.46 2.34,3.46 2.34,5.66 0,4.42 -3.58,8 -8,8 -4.42,0 -8,-3.58 -8,-8 0,-3.72 2.56,-6.82 6,-7.72 v 4.28 c -1.2,0.7 -2,1.96 -2,3.44 0,2.2 1.8,4 4,4 2.2,0 4,-1.8 4,-4 0,-1.48 -0.8,-2.76 -2,-3.44 v -16.56 h -2 c -11.04,0 -20,8.96 -20,20 0,11.04 8.96,20 20,20 11.04,0 20,-8.96 20,-20 0,-5.52 -2.24,-10.52 -5.86,-14.14 z"
     id="path4"
     inkscape:connector-curvature="0" />
  <text
     xml:space="preserve"
     style="font-style:normal;font-weight:normal;font-size:35.77455902px;line-height:1.25;font-family:sans-serif;letter-spacing:0px;word-spacing:0px;fill:#000000;fill-opacity:1;stroke:none;stroke-width:6.70773029"
     x="29.200535"
     y="28.3372"
     id="text1424"
     transform="scale(1.0087287,0.99134685)"><tspan
       sodipodi:role="line"
       x="29.200535"
       y="28.3372"
       id="tspan1422"
       style="stroke-width:6.70773029"><tspan
         x="29.200535"
         y="28.3372"
         id="tspan1420"
         style="stroke-width:6.70773029">B</tspan></tspan></text>
</svg>
