<?xml version="1.0" encoding="UTF-8" standalone="no"?>
<svg
   xmlns:dc="http://purl.org/dc/elements/1.1/"
   xmlns:cc="http://creativecommons.org/ns#"
   xmlns:rdf="http://www.w3.org/1999/02/22-rdf-syntax-ns#"
   xmlns:svg="http://www.w3.org/2000/svg"
   xmlns="http://www.w3.org/2000/svg"
   xmlns:sodipodi="http://sodipodi.sourceforge.net/DTD/sodipodi-0.dtd"
   xmlns:inkscape="http://www.inkscape.org/namespaces/inkscape"
   height="512px"
   style="enable-background:new 0 0 512 512;"
   version="1.1"
   viewBox="0 0 512 512"
   width="512px"
   xml:space="preserve"
   id="svg8"
   sodipodi:docname="Volcano.svg"
   inkscape:version="0.92.4 (5da689c313, 2019-01-14)"><metadata
     id="metadata14"><rdf:RDF><cc:Work
         rdf:about=""><dc:format>image/svg+xml</dc:format><dc:type
           rdf:resource="http://purl.org/dc/dcmitype/StillImage" /></cc:Work></rdf:RDF></metadata><defs
     id="defs12" /><sodipodi:namedview
     pagecolor="#ffffff"
     bordercolor="#666666"
     borderopacity="1"
     objecttolerance="10"
     gridtolerance="10"
     guidetolerance="10"
     inkscape:pageopacity="0"
     inkscape:pageshadow="2"
     inkscape:window-width="958"
     inkscape:window-height="1008"
     id="namedview10"
     showgrid="false"
     inkscape:zoom="0.4609375"
     inkscape:cx="-124.74576"
     inkscape:cy="256"
     inkscape:window-x="1913"
     inkscape:window-y="1080"
     inkscape:window-maximized="0"
     inkscape:current-layer="svg8" /><g
     id="_x31_39_x2C__disaster_x2C__eruption_x2C__volcano_x2C__alert_x2C__safety"><g
       id="g4"><path
         d="M312.131,284.725c4.004,0,7.644,1.62,10.266,4.242l0.221,0.236c2.492,2.621,4.036,6.156,4.036,10.045    c0,4.008-1.636,7.631-4.257,10.252c-2.622,2.623-6.262,4.242-10.266,4.242c-3.994,0-7.63-1.619-10.251-4.242    c-2.625-2.621-4.258-6.244-4.258-10.252c0-4.007,1.633-7.63,4.258-10.252C304.501,286.345,308.123,284.725,312.131,284.725     M227.654,336.191c4.004,0,7.644,1.65,10.265,4.272l0.207,0.235c2.502,2.593,4.036,6.129,4.036,10.018    c0,3.977-1.622,7.63-4.257,10.252c-2.608,2.621-6.247,4.242-10.251,4.242c-4.008,0-7.647-1.621-10.255-4.242l-0.221-0.236    c-2.502-2.592-4.036-6.156-4.036-10.016c0-4.008,1.635-7.631,4.257-10.253C220.006,337.842,223.646,336.191,227.654,336.191z     M356.056,244.893c-1.414,0.531-2.87,0.974-4.358,1.326c-2.695,0.648-5.51,0.973-8.367,0.973c-7.809,0-15.056-2.445-21.008-6.658    c-4.902-3.447-8.924-8.102-11.651-13.492c-1.517,0.824-3.106,1.561-4.741,2.15c-2.151,0.825-4.437,1.414-6.805,1.797    c-2.151,7.218-6.469,13.492-12.168,18.09c-6.261,5.008-14.217,8.013-22.833,8.013c-4.345,0-8.559-0.767-12.462-2.181    c-3.137-1.149-6.068-2.71-8.721-4.596c-3.843,2.651-8.072,4.803-12.578,6.334c-5.215,1.797-10.813,2.77-16.6,2.77    c-6.131,0-12.02-1.09-17.502-3.064c-4.124-1.502-8.012-3.505-11.564-5.98l-31.213,74.801l-0.116,0.266l-48.536,116.31H310.85    l49.656-118.962v-0.029l0.088-0.235l0.014-0.03l0.134-0.265l0.014-0.03l0.015-0.028l0.014-0.03l0.018-0.028l0.027-0.03v-0.029    l0.074-0.088h0.014l0.015-0.059h0.018l0.028-0.061h0.014l0.074-0.117l0.031-0.029l0.014-0.029l0.028-0.029h0.015l0.045-0.059l0,0    l0.042-0.06l0,0l0.046-0.059l0,0l0.193-0.177l0,0l0.041-0.029c0.12-0.119,0.254-0.236,0.4-0.324h0.014    c0.572-0.383,1.254-0.619,1.987-0.619h23.615L356.056,244.893z M317.272,294.093c-1.313-1.296-3.138-2.121-5.142-2.121    s-3.814,0.825-5.142,2.121c-1.313,1.296-2.12,3.123-2.12,5.155c0,1.975,0.808,3.801,2.12,5.127    c1.327,1.326,3.138,2.121,5.142,2.121s3.829-0.795,5.142-2.121c1.31-1.326,2.134-3.152,2.134-5.127    c0-1.943-0.751-3.712-1.959-5.008L317.272,294.093z M232.792,345.59c-1.309-1.326-3.137-2.15-5.138-2.15    c-2.004,0-3.818,0.824-5.142,2.15c-1.313,1.297-2.123,3.123-2.123,5.127c0,1.943,0.751,3.711,1.976,4.979l0.147,0.146    c1.323,1.326,3.138,2.151,5.142,2.151c2,0,3.829-0.825,5.138-2.151c1.327-1.296,2.138-3.123,2.138-5.125    c0-1.945-0.751-3.713-1.958-4.979L232.792,345.59z M366.339,327.56h-0.015l-47.655,114.189h161.269L432.271,327.56H366.339z     M144.661,327.56h-10.666L38.692,441.749h58.317L144.661,327.56z M221.775,485.999c-2.004,0-3.625-1.62-3.625-3.624    c0-1.973,1.622-3.623,3.625-3.623h211.1c1.986,0,3.608,1.65,3.608,3.623c0,2.004-1.622,3.624-3.608,3.624H221.775z     M454.47,485.999c-1.99,0-3.608-1.62-3.608-3.624c0-1.973,1.618-3.623,3.608-3.623h26.395c2.004,0,3.625,1.65,3.625,3.623    c0,2.004-1.621,3.624-3.625,3.624H454.47z M31.122,485.438c-1.99,0-3.611-1.619-3.611-3.623c0-2.003,1.622-3.624,3.611-3.624    h100.031c2.004,0,3.625,1.621,3.625,3.624c0,2.004-1.622,3.623-3.625,3.623H31.122z M222.365,41.822    c4.004,0,7.644,1.649,10.266,4.271s4.243,6.246,4.243,10.252c0,4.007-1.635,7.631-4.243,10.252    c-2.622,2.623-6.261,4.242-10.266,4.242c-3.994,0-7.615-1.619-10.254-4.242c-2.636-2.621-4.257-6.245-4.257-10.252    c0-4.006,1.622-7.63,4.243-10.252S218.357,41.822,222.365,41.822z M298.254,160.961c4.008,0,7.644,1.619,10.27,4.242    c2.621,2.621,4.239,6.275,4.239,10.281c0,4.007-1.618,7.631-4.239,10.253c-2.626,2.622-6.262,4.242-10.27,4.242    s-7.629-1.62-10.251-4.242s-4.257-6.246-4.257-10.253c0-4.006,1.635-7.66,4.257-10.281    C290.625,162.58,294.246,160.961,298.254,160.961z M168.231,164.26c4.004,0,7.644,1.621,10.265,4.242    c2.622,2.623,4.243,6.275,4.243,10.282s-1.622,7.63-4.243,10.252s-6.261,4.243-10.265,4.243c-3.994,0-7.647-1.621-10.269-4.243    s-4.239-6.245-4.239-10.252s1.618-7.659,4.239-10.282C160.583,165.881,164.237,164.26,168.231,164.26z M334.227,26.002    c4.004,0,7.645,1.62,10.266,4.242c2.621,2.621,4.257,6.245,4.257,10.252c0,4.006-1.636,7.66-4.257,10.282    s-6.262,4.242-10.266,4.242c-3.994,0-7.629-1.62-10.254-4.242c-2.622-2.622-4.258-6.276-4.258-10.282    c0-4.007,1.636-7.631,4.258-10.252C326.598,27.622,330.232,26.002,334.227,26.002z M363.45,56.906    c0.986-1.738,3.197-2.328,4.935-1.355c1.723,1.002,2.326,3.211,1.341,4.92l-47.049,82.843c-0.985,1.738-3.196,2.356-4.92,1.355    c-1.737-0.972-2.341-3.183-1.354-4.921L363.45,56.906z M305.34,76.527c0.502-1.916,2.475-3.094,4.404-2.594    c1.931,0.502,3.078,2.475,2.576,4.42l-19.341,74.27c-0.498,1.914-2.475,3.094-4.404,2.593c-1.927-0.501-3.092-2.476-2.59-4.419    L305.34,76.527z M174.769,116.181c-0.986-1.738-0.369-3.948,1.358-4.921c1.737-0.972,3.931-0.382,4.917,1.355l33.011,58.097    c0.976,1.708,0.368,3.919-1.355,4.919c-1.737,0.973-3.948,0.385-4.92-1.354L174.769,116.181z M180.353,60.471    c-0.986-1.709-0.382-3.918,1.355-4.92c1.741-0.973,3.934-0.383,4.92,1.355l47.062,82.842c0.99,1.738,0.386,3.949-1.354,4.921    c-1.723,1.001-3.931,0.383-4.92-1.355L180.353,60.471z M237.758,78.354c-0.502-1.945,0.663-3.918,2.593-4.42    c1.927-0.5,3.903,0.678,4.404,2.594l19.341,74.27c0.498,1.943-0.664,3.918-2.58,4.419c-1.93,0.501-3.902-0.679-4.404-2.593    L237.758,78.354z M369.034,112.615c0.985-1.737,3.196-2.327,4.92-1.355c1.737,0.973,2.341,3.183,1.354,4.921l-32.996,58.097    c-0.986,1.738-3.197,2.326-4.92,1.354c-1.737-1-2.341-3.211-1.355-4.919L369.034,112.615z M43.142,467.438    c-1.99,0-3.625-1.62-3.625-3.623c0-1.975,1.635-3.624,3.625-3.624h305.063c1.99,0,3.622,1.649,3.622,3.624    c0,2.003-1.632,3.623-3.622,3.623H43.142z M187.558,243.539c3.387,2.504,7.142,4.565,11.164,6.01    c4.671,1.708,9.739,2.621,15.042,2.621c5.008,0,9.823-0.824,14.287-2.356c4.611-1.562,8.869-3.888,12.652-6.806    c1.313-1.09,3.271-1.119,4.625,0c2.58,2.18,5.556,3.918,8.795,5.097c3.091,1.12,6.482,1.739,10.001,1.739    c6.938,0,13.302-2.387,18.31-6.394c5.081-4.095,8.78-9.84,10.269-16.38l0.014-0.089c0.354-1.532,1.604-2.71,3.212-2.857    c2.562-0.235,5.096-0.825,7.481-1.709c2.387-0.884,4.626-2.062,6.644-3.476c0.31-0.266,0.664-0.472,1.074-0.59    c1.871-0.678,3.948,0.295,4.611,2.18c2.064,5.745,5.865,10.666,10.739,14.111c4.759,3.359,10.561,5.303,16.853,5.303    c2.342,0,4.594-0.264,6.731-0.766c1.105-0.234,2.18-0.56,3.226-0.941l-13.406-32.112H203.171L187.558,243.539z"
         id="path2" /></g></g><g
     id="Layer_1" /><flowRoot
     xml:space="preserve"
     id="flowRoot821"
     style="font-style:normal;font-weight:normal;font-size:5.33333349px;line-height:1.25;font-family:sans-serif;letter-spacing:0px;word-spacing:0px;fill:#ffffff;fill-opacity:1;stroke:none;stroke-width:0.00395988;stroke-miterlimit:4;stroke-dasharray:none;stroke-opacity:1;"
     transform="matrix(24.329855,0,0,26.211774,-3886.3503,-9240.7655)"><flowRegion
       id="flowRegion823"
       style="fill:#ffffff;fill-opacity:1;stroke:none;stroke-width:0.00395988;stroke-miterlimit:4;stroke-dasharray:none;stroke-opacity:1;"><rect
         id="rect825"
         width="206.1017"
         height="110.64407"
         x="164.88136"
         y="364.47458"
         style="fill:#ffffff;fill-opacity:1;stroke:none;stroke-width:0.00395988;stroke-miterlimit:4;stroke-dasharray:none;stroke-opacity:1;" /></flowRegion><flowPara
       id="flowPara827">1..12</flowPara></flowRoot></svg>